<svg xmlns="http://www.w3.org/2000/svg" viewBox="0 0 290 52">
    <g fill="#003087">
        <path d="M287.322 2.826a.565.565 0 0 1-.627.611h-1.15V2.213h1.15a.566.566 0 0 1 .623.613m-.319 1.059a1.1 1.1 0 0 0 .892-1.072 1.06 1.06 0 0 0-1.209-1.1h-1.687v3.742h.549V3.937h.909l.911 1.511h.594Zm2.573-.257a3.2 3.2 0 1 1-3.231-3.241 3.121 3.121 0 0 1 3.231 3.241m.424 0a3.628 3.628 0 1 0-3.608 3.627 3.559 3.559 0 0 0 3.608-3.627" />
        <path d="M75.779 47.424c4.512.036 10.422-.8 13.816-4.377l.1.1v6.166a56.909 56.909 0 0 1-14.225 2.273c-13.816-.058-27.191-8.065-27.191-25.333C48.279 13.279 58.55.51 75.796.51a42.662 42.662 0 0 1 12.562 2.266v5.015l-.13.105c-3.218-2.839-8.725-3.872-13.387-3.872-11 0-19.744 8.357-19.744 21.5 0 15.672 9.542 21.8 20.676 21.9" />
        <path d="M253.539 46.16V26.437h21.127v-3.8h-21.127V5.563h23.742V1.657h-29.982v48.782h31.469V46.16Z" />
        <path d="M133.701 1.657V32.68c0 9.065-4.432 15.193-14.715 15.193-10.929 0-13.216-7.655-13.216-14.782V1.657h-6.454v31.767c0 10.761 7.491 18.166 19.7 18.166s19.175-8.426 19.175-19.033v-30.9Z" />
        <path d="m185.66 1.655-16.361 41.469-16.765-41.469h-7.136l20.251 49h4.742l20.009-49Z" />
        <path d="m12.897 31.933 9.49-22.591 9.64 22.591Zm27.026 18.511h7.3l-22.2-49.14h-7.559v.377c2.264 1.482 2.431 3.523 1.068 6.961l-18.537 41.8h5.12l6.184-14.721h22.344Z" />
        <path d="M231.716 1.657V32.68c0 9.065-4.437 15.193-14.716 15.193-10.928 0-13.219-7.655-13.219-14.782V1.657h-6.454v31.767c0 10.761 7.492 18.166 19.7 18.166S236.2 43.164 236.2 32.557v-30.9Z" />
    </g>
</svg>