<svg xmlns="http://www.w3.org/2000/svg" xmlns:xlink="http://www.w3.org/1999/xlink" width="76" height="76" viewBox="0 0 76 76">
  <defs>
    <filter id="Ellipse_255" x="0" y="0" width="76" height="76" filterUnits="userSpaceOnUse">
      <feOffset input="SourceAlpha"/>
      <feGaussianBlur stdDeviation="5" result="blur"/>
      <feFlood flood-color="#003087" flood-opacity="0.596"/>
      <feComposite operator="in" in2="blur"/>
      <feComposite in="SourceGraphic"/>
    </filter>
  </defs>
  <g id="Group_3258" data-name="Group 3258" transform="translate(-1207 -1018)">
    <g transform="matrix(1, 0, 0, 1, 1207, 1018)" filter="url(#Ellipse_255)">
      <circle id="Ellipse_255-2" data-name="Ellipse 255" cx="23" cy="23" r="23" transform="translate(15 15)" fill="#003087"/>
    </g>
    <path id="Ellipse_256" data-name="Ellipse 256" d="M20,1.6A18.4,18.4,0,0,0,6.989,33.011,18.4,18.4,0,0,0,33.011,6.989,18.28,18.28,0,0,0,20,1.6M20,0A20,20,0,1,1,0,20,20,20,0,0,1,20,0Z" transform="translate(1225 1036)" fill="#fff"/>
    <g id="Group_3258-2" data-name="Group 3258" transform="translate(2149.76 748.231)" opacity="0.5">
      <path id="Path_5205" data-name="Path 5205" d="M-931.76,305.987h-.026a.5.5,0,0,1-.474-.525,26.5,26.5,0,0,1,7.842-17.512,26.522,26.522,0,0,1,17.605-7.68.5.5,0,0,1,.52.479.5.5,0,0,1-.479.52,25.524,25.524,0,0,0-16.943,7.391,25.5,25.5,0,0,0-7.547,16.853A.5.5,0,0,1-931.76,305.987Z" fill="#003283"/>
      <path id="Path_5206" data-name="Path 5206" d="M-906.79,337.412h-.021a26.521,26.521,0,0,1-17.605-7.678,26.5,26.5,0,0,1-7.843-17.511.5.5,0,0,1,.474-.525.5.5,0,0,1,.525.474,25.5,25.5,0,0,0,7.548,16.851,25.523,25.523,0,0,0,16.943,7.389.5.5,0,0,1,.479.52A.5.5,0,0,1-906.79,337.412Z" transform="translate(0 -2.143)" fill="#003283"/>
      <path id="Path_5207" data-name="Path 5207" d="M-900.577,337.411a.5.5,0,0,1-.5-.479.5.5,0,0,1,.478-.521,25.528,25.528,0,0,0,16.918-7.4,25.507,25.507,0,0,0,7.536-16.838.5.5,0,0,1,.525-.474.5.5,0,0,1,.474.525,26.5,26.5,0,0,1-7.831,17.5,26.525,26.525,0,0,1-17.579,7.689Z" transform="translate(-2.115 -2.143)" fill="#003283"/>
      <path id="Path_5208" data-name="Path 5208" d="M-875.645,305.988a.5.5,0,0,1-.5-.475,25.5,25.5,0,0,0-7.535-16.841,25.528,25.528,0,0,0-16.919-7.4.5.5,0,0,1-.478-.521.5.5,0,0,1,.521-.478,26.526,26.526,0,0,1,17.581,7.691,26.5,26.5,0,0,1,7.829,17.5.5.5,0,0,1-.474.525Z" transform="translate(-2.115 0)" fill="#003283"/>
    </g>
    <g id="Group_3258-3" data-name="Group 3258" transform="translate(2146.76 745.231)" opacity="0.3">
      <path id="Path_5205-2" data-name="Path 5205" d="M-931.76,308.733h-.026a.5.5,0,0,1-.474-.525,29.391,29.391,0,0,1,8.7-19.421,29.413,29.413,0,0,1,19.525-8.517.5.5,0,0,1,.52.479.5.5,0,0,1-.479.52,28.415,28.415,0,0,0-18.862,8.228,28.394,28.394,0,0,0-8.4,18.762A.5.5,0,0,1-931.76,308.733Z" transform="translate(0)" fill="#003283"/>
      <path id="Path_5206-2" data-name="Path 5206" d="M-904.016,340.158h-.021a29.412,29.412,0,0,1-19.525-8.515,29.39,29.39,0,0,1-8.7-19.42.5.5,0,0,1,.474-.525.5.5,0,0,1,.525.474,28.393,28.393,0,0,0,8.4,18.76A28.414,28.414,0,0,0-904,339.158a.5.5,0,0,1,.479.52A.5.5,0,0,1-904.016,340.158Z" transform="translate(0 1.111)" fill="#003283"/>
      <path id="Path_5207-2" data-name="Path 5207" d="M-900.577,340.157a.5.5,0,0,1-.5-.479.5.5,0,0,1,.478-.521,28.419,28.419,0,0,0,18.834-8.239,28.4,28.4,0,0,0,8.39-18.745.5.5,0,0,1,.525-.474.5.5,0,0,1,.474.525,29.394,29.394,0,0,1-8.685,19.4,29.417,29.417,0,0,1-19.5,8.528Z" transform="translate(1.115 1.111)" fill="#003283"/>
      <path id="Path_5208-2" data-name="Path 5208" d="M-872.875,308.734a.5.5,0,0,1-.5-.475,28.394,28.394,0,0,0-8.389-18.749,28.419,28.419,0,0,0-18.836-8.24.5.5,0,0,1-.478-.521.5.5,0,0,1,.521-.478,29.417,29.417,0,0,1,19.5,8.529,29.392,29.392,0,0,1,8.683,19.408.5.5,0,0,1-.474.525Z" transform="translate(1.115 0)" fill="#003283"/>
    </g>
  </g>
</svg>
