<svg xmlns="http://www.w3.org/2000/svg" width="120" height="120"><circle data-name="Ellipse 282" cx="44" cy="44" r="44" transform="translate(16 16)" fill="#003087"/><g data-name="Group 2652" fill="#fff"><path data-name="Path 5277" d="M91.409 54.624a.125.125 0 01-.139.135h-.254v-.271h.256a.125.125 0 01.137.135m-.07.234a.244.244 0 00.2-.236.234.234 0 00-.267-.244h-.374v.826h.121v-.334h.2l.2.334h.131zm.568-.057a.707.707 0 11-.713-.715.689.689 0 01.713.715m.094 0a.8.8 0 10-.8.8.785.785 0 00.8-.8"/><path data-name="Path 5278" d="M44.724 64.466a4.242 4.242 0 003.049-.966l.023.023v1.361a12.558 12.558 0 01-3.139.5c-3.049-.013-6-1.78-6-5.591a5.775 5.775 0 016.073-5.681 9.415 9.415 0 012.772.5v1.106l-.029.023a4.692 4.692 0 00-2.954-.855c-2.427 0-4.357 1.844-4.357 4.746 0 3.459 2.106 4.811 4.563 4.833"/><path data-name="Path 5279" d="M83.954 64.189v-4.353h4.663v-.839h-4.663V55.23h5.24v-.862h-6.617v10.766h6.945v-.945z"/><path data-name="Path 5280" d="M57.507 54.366v6.847c0 2-.978 3.353-3.248 3.353-2.412 0-2.917-1.689-2.917-3.262v-6.938h-1.424v7.011c0 2.375 1.653 4.009 4.347 4.009a4 4 0 004.232-4.2v-6.819z"/><path data-name="Path 5281" d="M68.974 54.365l-3.611 9.152-3.7-9.152h-1.575l4.469 10.814h1.046l4.418-10.814z"/><path data-name="Path 5282" d="M30.847 61.047l2.094-4.986 2.127 4.986zm5.965 4.085h1.61l-4.898-10.844h-1.668v.083c.5.327.537.778.236 1.536l-4.091 9.225h1.13l1.365-3.249h4.928z"/><path data-name="Path 5283" d="M79.137 54.366v6.847c0 2-.979 3.353-3.248 3.353-2.412 0-2.917-1.689-2.917-3.262v-6.938h-1.424v7.011c0 2.375 1.654 4.009 4.347 4.009a4 4 0 004.231-4.2v-6.819z"/></g><path data-name="Rectangle 465" fill="none" d="M0 0h120v120H0z"/></svg>