<svg data-name="Icon Apple Store" xmlns="http://www.w3.org/2000/svg" width="96" height="32">
	<g data-name="Group 308">
		<path data-name="Path 178"
			d="M88.355 0H6.771c-.246 0-.489.006-.737.01a10.628 10.628 0 00-1.6.141 5.357 5.357 0 00-1.534.5 5.164 5.164 0 00-1.3.949 5.009 5.009 0 00-.941 1.3 5.273 5.273 0 00-.5 1.523 10.37 10.37 0 00-.143 1.6C0 6.265 0 6.511 0 6.756v18.5c0 .248 0 .489.012.738a10.37 10.37 0 00.143 1.6 5.262 5.262 0 00.5 1.523 4.968 4.968 0 00.945 1.29 5.034 5.034 0 001.3.943 5.386 5.386 0 001.525.5 10.821 10.821 0 001.6.141c.248.005.491.009.737.009h82.461c.245 0 .5 0 .74-.009a10.678 10.678 0 001.6-.141 5.468 5.468 0 001.531-.5 5.036 5.036 0 001.3-.943 5.118 5.118 0 00.948-1.291 5.274 5.274 0 00.5-1.523 10.776 10.776 0 00.148-1.6v-.738c.006-.291.006-.58.006-.875V7.631c0-.293 0-.584-.006-.873V6.02a10.776 10.776 0 00-.148-1.6 5.286 5.286 0 00-.5-1.523A5.181 5.181 0 0093.1.655a5.439 5.439 0 00-1.531-.5 10.49 10.49 0 00-1.6-.141c-.245 0-.5-.009-.74-.01h-.869z"
			fill="#a6a6a6" />
		<path data-name="Path 179"
			d="M6.786 31.293c-.245 0-.482 0-.725-.009a10.208 10.208 0 01-1.5-.13 4.73 4.73 0 01-1.329-.438 4.335 4.335 0 01-1.12-.813 4.254 4.254 0 01-.818-1.116 4.564 4.564 0 01-.435-1.325 9.892 9.892 0 01-.133-1.5c-.005-.169-.012-.73-.012-.73V6.765s.006-.553.011-.715a9.858 9.858 0 01.132-1.5 4.593 4.593 0 01.436-1.328 4.3 4.3 0 01.814-1.117 4.463 4.463 0 011.125-.817A4.681 4.681 0 014.558.853a10.127 10.127 0 011.5-.131l.724-.01h82.429l.732.01a9.965 9.965 0 011.49.13 4.773 4.773 0 011.34.438 4.479 4.479 0 011.933 1.937 4.592 4.592 0 01.434 1.318 10.359 10.359 0 01.139 1.508v.711c.006.3.006.585.006.873v16.732c0 .29 0 .574-.006.859v.743a10.145 10.145 0 01-.137 1.481 4.577 4.577 0 01-.433 1.335 4.508 4.508 0 01-1.937 1.925 4.712 4.712 0 01-1.338.439 10.091 10.091 0 01-1.5.13c-.235.005-.481.009-.72.009H6.786z" />
		<g data-name="Group 307" fill="#fff">
			<path data-name="Path 180"
				d="M20.216 16.202a4.039 4.039 0 011.923-3.389 4.135 4.135 0 00-3.258-1.761c-1.371-.144-2.7.82-3.4.82s-1.784-.808-2.942-.782a4.338 4.338 0 00-3.651 2.227c-1.579 2.733-.4 6.75 1.111 8.959.757 1.082 1.641 2.29 2.8 2.247 1.132-.047 1.555-.722 2.922-.722s1.751.722 2.931.695c1.215-.02 1.98-1.087 2.71-2.179a8.947 8.947 0 001.239-2.524 3.9 3.9 0 01-2.385-3.591z" />
			<path data-name="Path 181"
				d="M17.988 9.599a3.977 3.977 0 00.91-2.849 4.046 4.046 0 00-2.618 1.355 3.784 3.784 0 00-.934 2.744 3.346 3.346 0 002.642-1.25z" />
			<g data-name="Group 306">
				<path data-name="Path 182"
					d="M32.856 21.784h-3.864l-.928 2.74h-1.636l3.659-10.136h1.7l3.659 10.136h-1.663zm-3.463-1.264h3.062l-1.51-4.446h-.044z" />
				<path data-name="Path 183"
					d="M43.35 20.829c0 2.3-1.229 3.772-3.084 3.772a2.505 2.505 0 01-2.325-1.292h-.035v3.66h-1.517v-9.835h1.469v1.229h.028a2.621 2.621 0 012.353-1.306c1.875-.001 3.111 1.482 3.111 3.772zm-1.559 0c0-1.5-.773-2.48-1.953-2.48-1.159 0-1.938 1-1.938 2.48s.78 2.486 1.938 2.486c1.18 0 1.953-.976 1.953-2.486z" />
				<path data-name="Path 184"
					d="M51.483 20.829c0 2.3-1.229 3.772-3.084 3.772a2.505 2.505 0 01-2.325-1.292h-.035v3.66h-1.513v-9.835h1.468v1.229h.032a2.621 2.621 0 012.353-1.306c1.868-.001 3.104 1.482 3.104 3.772zm-1.557 0c0-1.5-.773-2.48-1.953-2.48-1.159 0-1.938 1-1.938 2.48s.78 2.486 1.938 2.486c1.18 0 1.953-.976 1.953-2.486z" />
				<path data-name="Path 185"
					d="M56.859 21.7c.112 1 1.089 1.665 2.423 1.665 1.279 0 2.2-.66 2.2-1.566 0-.787-.555-1.258-1.868-1.581l-1.316-.317c-1.861-.45-2.725-1.32-2.725-2.732 0-1.749 1.524-2.95 3.688-2.95 2.142 0 3.61 1.2 3.659 2.95h-1.531c-.092-1.011-.928-1.622-2.15-1.622s-2.058.618-2.058 1.517c0 .717.534 1.138 1.84 1.461l1.117.274c2.08.492 2.944 1.327 2.944 2.81 0 1.9-1.51 3.084-3.913 3.084-2.248 0-3.765-1.16-3.863-2.993z" />
				<path data-name="Path 186"
					d="M66.356 15.385v1.749h1.4v1.2h-1.4v4.074c0 .633.281.928.9.928a4.739 4.739 0 00.5-.035v1.194a4.165 4.165 0 01-.843.07c-1.5 0-2.08-.562-2.08-2v-4.23h-1.075v-1.2h1.074v-1.75z" />
				<path data-name="Path 187"
					d="M68.575 20.829c0-2.325 1.369-3.786 3.5-3.786s3.506 1.461 3.506 3.786-1.352 3.783-3.501 3.783-3.505-1.451-3.505-3.783zm5.465 0c0-1.595-.731-2.536-1.96-2.536s-1.959.949-1.959 2.536.73 2.536 1.959 2.536 1.96-.934 1.96-2.536z" />
				<path data-name="Path 188"
					d="M76.836 17.134h1.447v1.258h.035a1.763 1.763 0 011.777-1.335 2.339 2.339 0 01.52.057v1.419a2.12 2.12 0 00-.682-.092 1.528 1.528 0 00-1.581 1.7v4.383h-1.516z" />
				<path data-name="Path 189"
					d="M87.608 22.353a2.966 2.966 0 01-3.183 2.259c-2.15 0-3.484-1.44-3.484-3.751s1.341-3.821 3.42-3.821c2.045 0 3.33 1.4 3.33 3.645v.52h-5.219v.092a1.925 1.925 0 001.988 2.093 1.672 1.672 0 001.707-1.039zm-5.128-2.206h3.694a1.777 1.777 0 00-1.813-1.876 1.871 1.871 0 00-1.882 1.876z" />
			</g>
		</g>
	</g>
	<g data-name="Group 309" fill="#fff">
		<path data-name="Path 190"
			d="M29.202 6.966a2.155 2.155 0 012.292 2.42 2.165 2.165 0 01-2.292 2.45h-1.759v-4.87zm-1 4.181h.918a1.531 1.531 0 001.606-1.752 1.535 1.535 0 00-1.606-1.742h-.918z" />
		<path data-name="Path 191"
			d="M32.348 9.997a1.741 1.741 0 113.467 0 1.741 1.741 0 11-3.467 0zm2.72 0c0-.8-.358-1.263-.986-1.263s-.985.466-.985 1.263.355 1.265.985 1.265.986-.466.986-1.265z" />
		<path data-name="Path 192"
			d="M40.423 11.836h-.754l-.76-2.707h-.057l-.756 2.707h-.745l-1.013-3.675h.736l.658 2.8h.054l.756-2.8h.7l.756 2.8h.057l.655-2.8h.725z" />
		<path data-name="Path 193"
			d="M42.284 8.161h.7v.584h.054a1.1 1.1 0 011.1-.655 1.2 1.2 0 011.272 1.367v2.379h-.73v-2.2c0-.591-.257-.884-.793-.884a.843.843 0 00-.878.931v2.15h-.725z" />
		<path data-name="Path 194" d="M46.561 6.726h.725v5.11h-.725z" />
		<path data-name="Path 195"
			d="M48.295 9.997a1.741 1.741 0 113.467 0 1.742 1.742 0 11-3.467 0zm2.72 0c0-.8-.358-1.263-.986-1.263s-.985.466-.985 1.263.355 1.265.985 1.265.986-.466.986-1.265z" />
		<path data-name="Path 196"
			d="M52.524 10.797c0-.662.493-1.043 1.367-1.1l1-.057v-.317c0-.388-.257-.607-.752-.607-.4 0-.685.149-.766.409h-.7c.074-.631.668-1.036 1.5-1.036.921 0 1.441.459 1.441 1.235v2.511h-.7v-.517h-.06a1.237 1.237 0 01-1.1.577 1.11 1.11 0 01-1.225-1.1zm2.363-.314v-.307l-.9.057c-.506.034-.736.206-.736.53s.287.523.682.523a.866.866 0 00.952-.8z" />
		<path data-name="Path 197"
			d="M56.563 9.997c0-1.161.6-1.9 1.526-1.9a1.211 1.211 0 011.126.648h.054V6.726h.725v5.11h-.7v-.581h-.057a1.276 1.276 0 01-1.154.641c-.929.001-1.52-.735-1.52-1.899zm.749 0c0 .78.367 1.249.982 1.249s.989-.476.989-1.245-.382-1.249-.989-1.249-.979.472-.979 1.245z" />
		<path data-name="Path 198"
			d="M62.996 9.997a1.741 1.741 0 113.467 0 1.741 1.741 0 11-3.467 0zm2.72 0c0-.8-.358-1.263-.986-1.263s-.985.466-.985 1.263.355 1.265.985 1.265.987-.465.987-1.265z" />
		<path data-name="Path 199"
			d="M67.436 8.161h.7v.584h.054a1.1 1.1 0 011.1-.655 1.2 1.2 0 011.272 1.367v2.379h-.725v-2.2c0-.591-.257-.884-.793-.884a.843.843 0 00-.878.931v2.15h-.725z" />
		<path data-name="Path 200"
			d="M74.656 7.246v.932h.8v.611h-.8v1.89c0 .385.159.554.52.554a2.421 2.421 0 00.277-.017v.6a2.379 2.379 0 01-.395.037c-.807 0-1.128-.284-1.128-.992V8.788h-.583v-.611h.583v-.931z" />
		<path data-name="Path 201"
			d="M76.439 6.726h.719v2.025h.057a1.131 1.131 0 011.124-.662 1.211 1.211 0 011.266 1.37v2.373h-.726v-2.19c0-.587-.273-.884-.786-.884a.859.859 0 00-.925.932v2.147h-.729z" />
		<path data-name="Path 202"
			d="M83.835 10.844a1.492 1.492 0 01-1.593 1.063 1.669 1.669 0 01-1.7-1.9 1.7 1.7 0 011.695-1.92c1.023 0 1.64.7 1.64 1.853v.253h-2.6v.041a.971.971 0 00.979 1.053.881.881 0 00.874-.446zM81.284 9.66h1.856a.887.887 0 00-.9-.952.94.94 0 00-.952.952z" />
	</g>
</svg>