<svg id="Deco_Icon_Birthday" data-name="Deco Icon Birthday" xmlns="http://www.w3.org/2000/svg" xmlns:xlink="http://www.w3.org/1999/xlink" width="180" height="180" viewBox="0 0 180 180">
  <defs>
    <linearGradient id="linear-gradient" x1="0.5" y1="-0.306" x2="0.5" y2="1.824" gradientUnits="objectBoundingBox">
      <stop offset="0" stop-color="#f2f6fa"/>
      <stop offset="0.124" stop-color="#edf2f8"/>
      <stop offset="0.252" stop-color="#e1e8f2"/>
      <stop offset="0.383" stop-color="#ccd7e8"/>
      <stop offset="0.514" stop-color="#afbfda"/>
      <stop offset="0.648" stop-color="#89a0c8"/>
      <stop offset="0.782" stop-color="#5c7bb2"/>
      <stop offset="0.914" stop-color="#264f99"/>
      <stop offset="1" stop-color="#003087"/>
    </linearGradient>
    <linearGradient id="linear-gradient-2" y1="-0.287" y2="2.049" xlink:href="#linear-gradient"/>
    <linearGradient id="linear-gradient-3" y1="1.137" y2="-0.624" xlink:href="#linear-gradient"/>
  </defs>
  <g id="Group_2495" data-name="Group 2495" transform="translate(30 15.5)">
    <path id="Path_5007" data-name="Path 5007" d="M110.666,81.334,103.534,74.2l-7.2,7.134c-8.667,8.666-23.867,8.733-32.6,0L56.6,74.2l-7.266,7.134a22.9,22.9,0,0,1-16.268,6.732A23.163,23.163,0,0,1,20,84v30.734a6.686,6.686,0,0,0,6.666,6.668H133.334A6.686,6.686,0,0,0,140,114.733V84a23.163,23.163,0,0,1-13.067,4.067A22.9,22.9,0,0,1,110.666,81.334Z" transform="translate(-20 21.601)" fill="url(#linear-gradient)"/>
    <path id="Path_5008" data-name="Path 5008" d="M120,54.778H86.666V41.444H73.334V54.778H40a19.974,19.974,0,0,0-20,20V85.045A13.088,13.088,0,0,0,33.067,98.111a12.8,12.8,0,0,0,9.2-3.8l14.268-14.2,14.2,14.2a13.37,13.37,0,0,0,18.467,0l14.267-14.2,14.2,14.2a12.91,12.91,0,0,0,9.2,3.8,13.089,13.089,0,0,0,13.068-13.067V74.779A19.876,19.876,0,0,0,120,54.778Z" transform="translate(-20 5.223)" fill="url(#linear-gradient-2)"/>
    <path id="Path_5009" data-name="Path 5009" d="M64.445,50.334A13.33,13.33,0,0,0,77.778,37a12.7,12.7,0,0,0-1.934-6.867l-11.4-19.8-11.4,19.8A12.7,12.7,0,0,0,51.111,37,13.373,13.373,0,0,0,64.445,50.334Z" transform="translate(-4.444 -10.333)" fill="url(#linear-gradient-3)"/>
    <g id="Group_2494" data-name="Group 2494" transform="translate(0.945 119.73)" opacity="0.5">
      <g id="Group_2493" data-name="Group 2493">
        <path id="Path_5010" data-name="Path 5010" d="M136.841,101.153c-4.017,0-6.086-2.383-7.747-4.3-1.68-1.938-2.741-3.035-4.976-3.035s-3.294,1.1-4.973,3.035c-1.662,1.916-3.731,4.3-7.748,4.3s-6.081-2.383-7.742-4.3c-1.68-1.938-2.738-3.035-4.97-3.035s-3.288,1.1-4.965,3.033c-1.661,1.917-3.725,4.3-7.739,4.3s-6.08-2.383-7.74-4.3c-1.679-1.938-2.738-3.035-4.968-3.035s-3.288,1.1-4.967,3.035c-1.659,1.916-3.723,4.3-7.737,4.3s-6.08-2.383-7.739-4.3c-1.677-1.938-2.736-3.035-4.967-3.035s-3.29,1.1-4.967,3.035c-1.659,1.916-3.725,4.3-7.739,4.3s-6.078-2.385-7.736-4.3c-1.677-1.938-2.736-3.033-4.964-3.033a1.833,1.833,0,0,1,0-3.666c4.013,0,6.077,2.383,7.736,4.3,1.677,1.936,2.735,3.033,4.964,3.033s3.29-1.1,4.967-3.033c1.66-1.916,3.725-4.3,7.739-4.3s6.078,2.383,7.739,4.3c1.677,1.936,2.735,3.033,4.967,3.033s3.288-1.1,4.967-3.033c1.659-1.916,3.723-4.3,7.737-4.3s6.081,2.383,7.74,4.3c1.68,1.936,2.738,3.033,4.968,3.033s3.29-1.1,4.967-3.033c1.66-1.916,3.724-4.3,7.737-4.3s6.081,2.383,7.742,4.3c1.678,1.936,2.738,3.033,4.97,3.033s3.3-1.1,4.976-3.035c1.662-1.915,3.729-4.3,7.745-4.3s6.086,2.383,7.748,4.3c1.681,1.938,2.74,3.035,4.975,3.035a1.834,1.834,0,0,1,0,3.668Z" transform="translate(-20.63 -90.153)" fill="#00a9b6"/>
      </g>
    </g>
  </g>
  <rect id="Rectangle_807" data-name="Rectangle 807" width="180" height="180" fill="none"/>
</svg>
