<svg xmlns="http://www.w3.org/2000/svg" x="0" y="0"
	 version="1.1" viewBox="0 0 390 390" xml:space="preserve">
  <defs/>
	<style>
    .st4{fill:none}.st5{fill:#003087;enable-background:new}.st5,.st6{opacity:.2}.st7{fill:#003087}.st8,.st9{enable-background:new}.st8{opacity:.2;fill:#fff}.st9{fill:#003087}.st10,.st9{opacity:.4}.st11{opacity:.5}.st12{fill:#fff}.st13,.st14{enable-background:new}.st13{opacity:.3;fill:#003087}.st14{fill:#fff}.st14,.st15{opacity:.3}.st17{fill:#ffc9ac}.st19{fill:#2a3138}.st21{fill:#f2f6fa}.st27{opacity:.5;fill:#00a9b6;enable-background:new}.st32{fill:#ebeced}.st39{font-family:&apos;Graphik-Semibold&apos;}
  </style>
	<g>
    <defs>
    </defs>
		<clipPath id="SVGID_21_"><path d="M0 0h390v390H0z"/></clipPath>
		<g clip-path="url(#SVGID_21_)">
      <linearGradient id="SVGID_22_" x1="195" x2="195" y1="842" y2="328.99" gradientTransform="translate(0 -452)"
					  gradientUnits="userSpaceOnUse">
        	<stop offset="0" stop-color="#fff"/>
		  <stop offset=".21" stop-color="#fcfdfe" stop-opacity=".96"/>
		  <stop offset=".35" stop-color="#f4f6fa" stop-opacity=".93"/>
		  <stop offset=".46" stop-color="#e5eaf3" stop-opacity=".91"/>
		  <stop offset=".56" stop-color="#d0d9e9" stop-opacity=".89"/>
		  <stop offset=".66" stop-color="#b5c3dc" stop-opacity=".87"/>
		  <stop offset=".75" stop-color="#93a8cc" stop-opacity=".85"/>
		  <stop offset=".83" stop-color="#6c87ba" stop-opacity=".83"/>
		  <stop offset=".91" stop-color="#3e62a4" stop-opacity=".82"/>
		  <stop offset=".98" stop-color="#0b398c" stop-opacity=".8"/>
		  <stop offset="1" stop-color="#003087" stop-opacity=".8"/>
      </linearGradient>

			<path fill="url(#SVGID_22_)" d="M0 0h390v390H0z"/>
			<path d="M-5.7 12.5H413v418.7H-5.7z" class="st4"/>
			<path d="M37.5 34.3h130.1v136H37.5z" class="st5"/>
			<g class="st6">
        <path d="M92.8 52.8h19v5.1H99.3v6.8h9.9v4.8h-9.9v7.3h13.1V82H92.8V52.8z" class="st7"/>
      </g>
			<g class="st6">
        <path d="M71.8 92.7h11.8V96H76v4.9h6v3.1h-6v7.1h-4.2V92.7z" class="st7"/>
      </g>
			<g class="st6">
        <path
			d="M120 92.7h6.4c4.5 0 7 2 7 5.9v.1c0 3.9-2.7 5.7-6.9 5.7h-2.3v6.7H120V92.7zm6.2 8.8c2 0 3.1-1 3.1-2.8v-.1c0-2-1.1-2.7-3.1-2.7h-2.1v5.6h2.1z"
			class="st7"/>
      </g>
			<g class="st6">
        <path d="M50.9 123.2h-3.7v-2.4h10.6v2.4H54v11.4h-3.1v-11.4z" class="st7"/>
      </g>
			<g class="st6">
        <path d="M147 134.2l6.6-11h-5.9v-2.4H158v.4l-6.4 11h6.2v2.5H147v-.5z" class="st7"/>
      </g>
			<g class="st6">
        <path
			d="M77.7 127.7v-.2c0-4.1 3-7 7.1-7 4.2 0 7.1 2.8 7.1 7v.2c0 4.1-2.8 7.1-7.1 7.1s-7.1-3-7.1-7.1zm11 0v-.2c0-2.7-1.4-4.5-3.8-4.5s-3.8 1.8-3.8 4.5v.2c0 2.8 1.6 4.6 3.9 4.6 2.2 0 3.7-1.8 3.7-4.6z"
			class="st7"/>
      </g>
			<g class="st6">
        <path d="M47.1 151.3h2.4v8.8h4.4v1.9h-6.8v-10.7z" class="st7"/>
      </g>
			<g class="st6">
        <path
			d="M148.9 151.3h3.5c3.8 0 5.6 2 5.6 5.3v.1c0 3.2-1.9 5.4-5.6 5.4h-3.5v-10.8zm3.4 8.9c2.2 0 3.2-1.2 3.2-3.4v-.1c0-2.2-.9-3.4-3.2-3.4h-1v7h1v-.1z"
			class="st7"/>
      </g>
			<g class="st6">
        <path d="M115.5 151.3h7v1.9h-4.6v2.5h3.7v1.8h-3.7v2.7h4.8v1.9h-7.2v-10.8z" class="st7"/>
      </g>
			<g class="st6">
        <path
			d="M80.9 151.3h3.7c2.6 0 4.1 1.2 4.1 3.4v.1c0 2.3-1.6 3.4-4 3.4h-1.4v3.9h-2.4v-10.8zm3.7 5.2c1.2 0 1.8-.6 1.8-1.6v-.1c0-1.1-.7-1.6-1.8-1.6h-1.2v3.3h1.2z"
			class="st7"/>
      </g>
			<path
				d="M196.3 82.7v268.1h214V82.7h-214zm12.5 12.5h189v62.6h-189V95.2zm0 75.1h189v68.5h-189v-68.5zm189 180.6h-189v-25.2h189v25.2zm0-37.7h-189v-61.9h189v61.9z"
				class="st5"/>
			<path d="M232 154.1h-19.5c-.6 0-1-.4-1-1v-40.9c0-.6.4-1 1-1H232c.6 0 1 .4 1 1v40.9c0 .5-.4 1-1 1z"
				  class="st5"/>
			<path d="M228.3 132.1c0 3.3-2.7 6-6 6s-6-2.7-6-6 6-11.1 6-11.1 6 7.8 6 11.1z" class="st8"/>
			<path id="Path_4633_1_"
				  d="M273.1 142.5c-1.4 0-2.7.5-3.7 1.4a4.95 4.95 0 01-6-.1c-2.5-2-6.1-1.7-8.1.8s-1.7 6.1.8 8.1c2.1 1.7 5.1 1.8 7.3.1 1.8-1.5 4.4-1.5 6.2-.1l.1.1c2.5 2 6.1 1.6 8.1-.9s1.6-6.1-.9-8.1c-1.2-.8-2.5-1.3-3.8-1.3zm-18.4 5.8c0-2.7 2.2-5 5-5s5 2.2 5 5-2.2 5-5 5c-2.8-.1-5-2.3-5-5zm10 2.9c1-1.8 1-3.9 0-5.7a5.08 5.08 0 003.4 0c-1 1.8-1 3.9 0 5.7-1.1-.4-2.3-.4-3.4 0zm8.4 2c-2.7 0-5-2.2-5-5 0-2.7 2.2-5 5-5 2.7 0 5 2.2 5 5s-2.2 5-5 5z"
				  class="st5"/>
			<path id="Path_4634_1_"
				  d="M273.1 152.3c-2.2 0-4-1.8-4-4s1.8-4 4-4 4 1.8 4 4-1.8 4-4 4zm0-7.2c-1.8 0-3.2 1.4-3.2 3.2s1.4 3.2 3.2 3.2c1.8 0 3.2-1.4 3.2-3.2 0-1.8-1.4-3.2-3.2-3.2z"
				  class="st5"/>
			<path id="Path_4635_1_"
				  d="M259.7 152.3c-2.2 0-4-1.8-4-4s1.8-4 4-4 4 1.8 4 4-1.8 4-4 4zm0-7.2c-1.8 0-3.2 1.4-3.2 3.2s1.4 3.2 3.2 3.2c1.8 0 3.2-1.4 3.2-3.2 0-1.8-1.5-3.2-3.2-3.2z"
				  class="st9"/>
			<g id="Path_4094_1_" class="st6" transform="translate(31.18 8.63)">
        <path id="Path_4636_1_"
			  d="M240.4 141.7h.9v-1.5h.4l1 1.5h1l-1.1-1.7c.5-.1.8-.6.8-1.1 0-.8-.6-1.2-1.5-1.2h-1.4l-.1 4zm.9-2.2v-1.1h.5c.4 0 .7.1.7.5s-.2.6-.7.6h-.5z"
			  class="st7"/>
      </g>
			<g id="Path_4095_1_" class="st10" transform="translate(8.06 8.63)">
        <path id="Path_4637_1_" d="M250.4 141.7h2.5v-.7h-1.6v-3.3h-.9v4z" class="st7"/>
      </g>
			<g id="Group_2279_1_" class="st6" transform="translate(-35.99 -71.19)">
        <path id="Path_4835_1_"
			  d="M414 217c-.7-3-3.5-5.1-6.6-5h-2.3c-2.5-.1-4.9 1.3-6 3.5-1-.3-2.1-.3-3.1 0a6.58 6.58 0 00-6-3.5h-2.3c-3.1-.1-5.8 2-6.6 5-.5 0-.9.2-1.3.5-.3.3-.5.7-.5 1.1.1.9.8 1.5 1.7 1.5.7 3 3.5 5.1 6.6 5h2.3c3.7 0 6.8-2.8 6.8-6.2v-.2c0-.2.5-.4.9-.4.3 0 .5.1.7.3v.2c-.1 3.5 2.9 6.3 6.6 6.4h2.5c3.1.1 5.9-2 6.6-5 .5 0 .9-.2 1.2-.6.3-.3.4-.7.4-1.1-.1-.8-.8-1.4-1.6-1.5zm-20.3 2c0 1.8-1.5 3.3-3.3 3.3h-3.1c-1.8 0-3.3-1.5-3.3-3.3v-.8c0-1.8 1.5-3.3 3.3-3.3h3.1c1.8 0 3.3 1.5 3.3 3.3v.8zm17.5 0c0 1.8-1.5 3.3-3.3 3.3h-3.1c-1.8 0-3.3-1.5-3.3-3.3v-.8c0-1.8 1.5-3.3 3.3-3.3h3.1c1.8 0 3.3 1.5 3.3 3.3v.8z"
			  class="st7"/>
				<g id="Group_2277_1_" class="st11">
          <path id="Path_4836_1_"
				d="M406.9 221.5c-.4 0-.8-.3-.8-.8 0-.2.1-.4.2-.5l2.3-2.3c.3-.3.8-.3 1.1 0 .3.3.3.8 0 1l-2.3 2.3c-.2.3-.3.3-.5.3z"
				class="st7"/>
        </g>
				<g id="Group_2278_1_" class="st11">
          <path id="Path_4837_1_"
				d="M389.3 221.5c-.4 0-.8-.3-.8-.8 0-.2.1-.4.2-.5l2.3-2.3c.3-.3.8-.3 1.1 0 .3.3.3.8 0 1l-2.3 2.3c-.1.3-.3.3-.5.3z"
				class="st7"/>
        </g>
      </g>
			<g>
        <g class="st6">
          <path
			  d="M246.2 125.2v-.8h-4.7v.8l-5.5 5.5v22.2c0 .7 3.5 1.2 7.8 1.2s7.8-.5 7.8-1.2v-22.2l-5.4-5.5zM246.6 120.4c-1-.3-1-2.3-1-2.3h-3.4s.1 2-1 2.3c0 0-.5 2.3-.2 4h5.8c.2-1.7-.2-4-.2-4z"
			  class="st7"/>
			<g class="st6">
            <path d="M241.5 120.9h.3v3h-.3z" class="st12"/>
          </g>
			<g class="st6">
            <path d="M242.2 120.9h.3v3h-.3z" class="st12"/>
          </g>
			<g class="st6">
            <path d="M243 120.9h.3v3h-.3z" class="st12"/>
          </g>
			<g class="st6">
            <path d="M243.7 120.9h.3v3h-.3z" class="st12"/>
          </g>
			<g class="st6">
            <path d="M244.5 120.9h.3v3h-.3z" class="st12"/>
          </g>
			<g class="st6">
            <path d="M245.2 120.9h.3v3h-.3z" class="st12"/>
          </g>
			<g class="st6">
            <path d="M246 120.9h.3v3h-.3z" class="st12"/>
          </g>
        </g>
				<path d="M247.9 140.1c0 2.3-1.8 4.1-4.1 4.1s-4.1-1.8-4.1-4.1 4.1-7.5 4.1-7.5 4.1 5.3 4.1 7.5z"
					  class="st5"/>
				<path d="M238 147.4h11.7v2.1H238z" class="st8"/>
				<g class="st6">
          <path d="M249.9 152.1h-4.3v-1.2h4.3v1.2zm-4.1-.2h3.8v-.6h-3.8v.6z" class="st12"/>
        </g>
      </g>
			<g>
        <path d="M255.3 234.6h-42.7c-.6 0-1-.4-1-1v-18.3c0-.6.4-1 1-1h42.7c.6 0 1 .4 1 1v18.3c0 .5-.4 1-1 1z"
			  class="st5"/>
				<g class="st6">
          <path
			  d="M233.9 233.2c-4.9 0-8.8-4-8.8-8.8 0-4.9 4-8.8 8.8-8.8 4.9 0 8.8 4 8.8 8.8.1 4.9-3.9 8.8-8.8 8.8zm0-17.1c-4.6 0-8.3 3.7-8.3 8.3s3.7 8.3 8.3 8.3 8.3-3.7 8.3-8.3-3.7-8.3-8.3-8.3z"
			  class="st12"/>
        </g>
      </g>
			<g>
        <path
			d="M285 308.4v-18.2c0-.6-.5-1.1-1.1-1.1h-8.6c-3 2.4-4.9 6.1-4.9 10.3 0 4.1 1.8 7.7 4.7 10.1h8.8c.7 0 1.1-.5 1.1-1.1z"
			class="st13"/>
				<path
					d="M270.5 299.4c0-4.2 1.9-7.9 4.9-10.3H251c-.6 0-1.1.5-1.1 1.1v18.3c0 .6.5 1.1 1.1 1.1h24.2c-2.9-2.5-4.7-6.1-4.7-10.2z"
					class="st5"/>
				<path
					d="M269.9 301.4c.1-.1.2-.2.1-.4-.1-.1-.2-.2-.4-.1-2.9 1.7-11.1 3.4-19.6 3v.5c.8 0 1.6.1 2.4.1 7.4 0 14.5-1.4 17.5-3.1z"
					class="st14"/>
				<path d="M272.6 296.8h10.1v1.8h-10.1z" class="st8"/>
				<g class="st6">
          <path
			  d="M270.6 301.1l-.5.3v-.4l.5-.4h.5v2.3h-.5v-1.8zM271.5 301.7h.9v.4h-.9v-.4zM272.9 300.6h.7l.5 1.4.5-1.4h.7v2.3h-.5v-1.6l-.6 1.6h-.2l-.6-1.6v1.6h-.5v-2.3zM275.7 302.1c0-.6.4-.9.9-.9s.9.3.9.9c0 .5-.4.9-.9.9-.6 0-.9-.4-.9-.9zm1.3 0c0-.3-.2-.5-.4-.5-.3 0-.4.2-.4.5s.1.5.4.5c.2 0 .4-.2.4-.5zM277.7 301.2h.5v.3c.1-.2.3-.3.5-.3.3 0 .6.2.6.7v1.1h-.5v-1c0-.2-.1-.3-.3-.3-.2 0-.4.1-.4.4v1h-.5l.1-1.9zM279.8 302.4v-.9h-.2v-.3h.2v-.4h.5v.4h.4v.3h-.4v.8c0 .1.1.2.2.2h.2v.4h-.3c-.4.1-.6-.1-.6-.5zM280.9 300.5h.5v1c.1-.2.3-.3.5-.3.3 0 .6.2.6.7v1.1h-.5v-1c0-.2-.1-.3-.3-.3-.2 0-.4.1-.4.4v1h-.5l.1-2.6z"
			  class="st12"/>
        </g>
				<g>
          <path
			  d="M246.7 308.4v-18.2c0-.6-.5-1.1-1.1-1.1H237c-3 2.4-4.9 6.1-4.9 10.3 0 4.1 1.8 7.7 4.7 10.1h8.8c.6 0 1.1-.5 1.1-1.1z"
			  class="st13"/>
					<path
						d="M232.1 299.4c0-4.2 1.9-7.9 4.9-10.3h-24.4c-.6 0-1.1.5-1.1 1.1v18.3c0 .6.5 1.1 1.1 1.1h24.2c-2.9-2.5-4.7-6.1-4.7-10.2z"
						class="st5"/>
					<path
						d="M231.5 301.4c.1-.1.2-.2.1-.4-.1-.1-.2-.2-.4-.1-2.9 1.7-11.1 3.4-19.6 3v.5c.8 0 1.6.1 2.4.1 7.4 0 14.5-1.4 17.5-3.1z"
						class="st14"/>
					<path d="M234.2 296.8h10.1v1.8h-10.1z" class="st8"/>
        </g>
				<g class="st6">
          <path
			  d="M232.3 301.1l-.5.3v-.4l.5-.4h.5v2.3h-.5v-1.8zM233.3 301.7h.9v.4h-.9v-.4zM234.7 300.6h.7l.5 1.4.5-1.4h.7v2.3h-.5v-1.6l-.6 1.6h-.2l-.6-1.6v1.6h-.5v-2.3zM237.4 302.1c0-.6.4-.9.9-.9s.9.3.9.9c0 .5-.4.9-.9.9a.9.9 0 01-.9-.9zm1.3 0c0-.3-.2-.5-.4-.5-.3 0-.4.2-.4.5s.1.5.4.5c.3 0 .4-.2.4-.5zM239.5 301.2h.5v.3c.1-.2.3-.3.5-.3.3 0 .6.2.6.7v1.1h-.5v-1c0-.2-.1-.3-.3-.3s-.4.1-.4.4v1h-.5l.1-1.9zM241.6 302.4v-.9h-.2v-.3h.2v-.4h.5v.4h.4v.3h-.5v.8c0 .1.1.2.2.2h.2v.4h-.3c-.3.1-.5-.1-.5-.5zM242.7 300.5h.5v1c.1-.2.3-.3.5-.3.3 0 .6.2.6.7v1.1h-.5v-1c0-.2-.1-.3-.3-.3s-.4.1-.4.4v1h-.5l.1-2.6z"
			  class="st12"/>
        </g>
      </g>
			<g>
        <path d="M336.9 234.5h-44.8c-.6 0-1-.4-1-1v-20.4c0-.6.4-1 1-1h44.8c.6 0 1 .4 1 1v20.4c0 .6-.4 1-1 1z"
			  class="st5"/>
				<g class="st6">
          <path
			  d="M326.2 230.5c-4 0-7.2-3.2-7.2-7.2s3.2-7.2 7.2-7.2 7.2 3.2 7.2 7.2-3.3 7.2-7.2 7.2zm0-13.9a6.7 6.7 0 100 13.4 6.7 6.7 0 000-13.4z"
			  class="st7"/>
        </g>
				<g class="st15">
          <path
			  d="M291.3 230.7l-.2-.2c4.5-3.8 15-7.4 23.2-4.3 4.2 1.6 9.1 2.6 13.5 2.6h.5c4.5 0 7.9-1 9.6-2.7l.2.2c-1.8 1.9-5.4 2.9-10.3 2.8-4.4-.1-9.4-1-13.5-2.6-8.2-3.1-18.6.4-23 4.2z"
			  class="st12"/>
					<path
						d="M291.3 231.1l-.2-.2c4.5-4.1 15.5-6.3 23.4-3.3 8.4 3.2 19.5 2.7 23.4-1.2l.2.2c-3.9 3.9-15.2 4.5-23.7 1.2-8.5-3.2-19.2-.3-23.1 3.3z"
						class="st12"/>
					<path
						d="M291.3 231.4l-.2-.2c4-3.8 14.9-5.5 23.5-2.2 6.9 2.6 18.5 2.3 23.2-2.2l.2.2c-4 3.8-14.9 5.5-23.5 2.2-6.9-2.6-18.5-2.3-23.2 2.2z"
						class="st12"/>
					<path
						d="M322.9 232c-2.9 0-5.7-.4-8.3-1.4-8.4-3.2-19.5-2.7-23.4 1.2l-.2-.2c3.9-3.9 15.2-4.5 23.7-1.2s19.2.3 23.1-3.2l.2.2c-3 2.7-9.1 4.6-15.1 4.6z"
						class="st12"/>
					<path
						d="M321.7 233.1c-2.4 0-4.7-.4-6.9-1.2-4.2-1.6-9.1-2.6-13.5-2.6h-.5c-4.5 0-7.9 1-9.6 2.7l-.2-.2c1.7-1.8 5.2-2.8 9.8-2.8h.5c4.4.1 9.4 1 13.5 2.6 8.1 3.1 18.5-.5 23-4.2l.2.2c-3.3 2.9-9.8 5.5-16.3 5.5z"
						class="st12"/>
        </g>
      </g>
			<g>
        <path d="M372.2 309.4h-44.8c-.6 0-1-.4-1-1V288c0-.6.4-1 1-1h44.8c.6 0 1 .4 1 1v20.4c0 .6-.4 1-1 1z"
			  class="st5"/>
				<path
					d="M355.3 303.9l-1.7.1.1-1.7-1.1 1.3-1.1-1.3.1 1.7-1.7-.1 1.3 1.1-1.3 1.1 1.6-.1c.3.3.7.5 1.1.5.8 0 1.5-.7 1.5-1.5v-.1l1.2-1z"
					class="st14"/>
				<path
					d="M354 305.1c-.1-.8-.7-1.4-1.5-1.4s-1.5.7-1.5 1.5c0 .4.1.7.3 1 .3.3.7.5 1.1.5.8 0 1.5-.7 1.5-1.5l.1-.1z"
					class="st14"/>
				<g class="st15">
          <text transform="translate(351.98 306.9)" class="st7 st39" font-size="3.22">
            UV
          </text>
					<text transform="translate(357.38 306.9)" class="st7 st39" font-size="2.15">
            BLOCKING
          </text>
        </g>
				<g class="st6">
          <path
			  d="M329.3 306.6h-2.4c-.1 0-.3-.1-.3-.3 0-.1.1-.2.3-.3 7.9.3 13.2-.9 18.3-1.9 4.9-1 9.4-2 15.7-1.7 8.8.4 11.5 2.8 11.6 2.9s.1.3 0 .4-.3.1-.4 0c0 0-2.7-2.4-11.2-2.8-6.2-.3-10.8.7-15.6 1.7-4.5 1-9.3 2-16 2z"
			  class="st12"/>
        </g>
				<g class="st6">
          <path
			  d="M329.5 305.6h-2.4c-.1 0-.3-.1-.3-.3 0-.1.1-.2.3-.3 7.9.3 13.2-.9 18.3-1.9 4.9-1 9.4-2 15.7-1.7 8.8.4 11.5 2.8 11.6 2.9s.1.3 0 .4-.3.1-.4 0c0 0-2.7-2.4-11.2-2.8-6.2-.3-10.8.7-15.6 1.7-4.6 1-9.4 2-16 2z"
			  class="st12"/>
        </g>
      </g>
			<g>
        <path d="M387.7 234.5H343c-.6 0-1-.4-1-1v-20.4c0-.6.4-1 1-1h44.8c.6 0 1 .4 1 1v20.4c-.1.6-.5 1-1.1 1z"
			  class="st5"/>
				<g class="st6">
          <path
			  d="M376.9 230.3c-4 0-7.2-3.2-7.2-7.2s3.2-7.2 7.2-7.2 7.2 3.2 7.2 7.2-3.2 7.2-7.2 7.2zm0-13.9a6.7 6.7 0 100 13.4 6.7 6.7 0 000-13.4z"
			  class="st7"/>
        </g>
				<g class="st6">
          <path
			  d="M371.9 222.1l-.6.4v-.6l.7-.5h.6v3.1h-.7v-2.4zM373.2 222.8h1.2v.5h-1.2v-.5zM375 221.4h1c1.1 0 1.6.6 1.6 1.5s-.5 1.5-1.6 1.5h-1v-3zm1 2.5c.6 0 .9-.3.9-1 0-.6-.3-1-.9-1h-.3v2h.3zM377.9 223.8c0-.5.5-.7 1.2-.7h.3v-.1c0-.3-.1-.4-.4-.4-.2 0-.4.1-.4.3h-.6c0-.5.5-.8 1-.8s.9.2.9.8v1.5h-.6v-.3c-.1.2-.3.3-.7.3-.4.1-.7-.1-.7-.6zm1.4-.1v-.2h-.2c-.4 0-.6.1-.6.3s.1.3.3.3c.3 0 .5-.2.5-.4zM381.1 224.2l-.9-2h.7l.5 1.3.5-1.3h.6l-1.2 3h-.6l.4-1z"
			  class="st7"/>
        </g>
				<g class="st15">
          <path
			  d="M342 230.5l-.2-.2c4.5-3.8 15-7.4 23.2-4.3 4.2 1.6 9.1 2.6 13.5 2.6h.5c4.5 0 7.9-1 9.6-2.7l.2.2c-1.8 1.9-5.4 2.9-10.3 2.8-4.4-.1-9.4-1-13.5-2.6-8.2-3.2-18.6.4-23 4.2z"
			  class="st12"/>
					<path
						d="M342 230.8l-.2-.2c4.5-4.1 15.5-6.3 23.4-3.3 8.4 3.2 19.5 2.7 23.4-1.2l.2.2c-3.9 3.9-15.2 4.5-23.7 1.2-8.5-3.1-19.2-.2-23.1 3.3z"
						class="st12"/>
					<path
						d="M342 231.2l-.2-.2c4-3.8 14.9-5.5 23.5-2.2 6.9 2.6 18.5 2.3 23.2-2.2l.2.2c-4 3.8-14.9 5.5-23.5 2.2-6.9-2.7-18.5-2.3-23.2 2.2z"
						class="st12"/>
					<path
						d="M373.6 231.8c-2.9 0-5.7-.4-8.3-1.4-8.4-3.2-19.5-2.7-23.4 1.2l-.2-.2c3.9-3.9 15.2-4.5 23.7-1.2s19.2.3 23.1-3.2l.2.2c-3 2.7-9 4.6-15.1 4.6z"
						class="st12"/>
					<path
						d="M372.4 232.9c-2.4 0-4.7-.4-6.9-1.2-4.2-1.6-9.1-2.6-13.5-2.6h-.5c-4.5 0-7.9 1-9.6 2.7l-.2-.2c1.7-1.8 5.2-2.8 9.8-2.8h.5c4.4.1 9.4 1 13.5 2.6 8.1 3.1 18.5-.5 23-4.2l.2.2c-3.2 2.8-9.8 5.5-16.3 5.5z"
						class="st12"/>
        </g>
      </g>
			<path d="M285.1 234.6h-24.2c-.6 0-1-.4-1-1v-18.3c0-.6.4-1 1-1h24.2c.6 0 1 .4 1 1v18.3c0 .5-.5 1-1 1z"
				  class="st5"/>
			<g class="st6">
        <path
			d="M273.2 233.2c-4.9 0-8.8-4-8.8-8.8 0-4.9 4-8.8 8.8-8.8 4.9 0 8.8 4 8.8 8.8.1 4.9-3.9 8.8-8.8 8.8zm0-17.1c-4.6 0-8.3 3.7-8.3 8.3s3.7 8.3 8.3 8.3c4.6 0 8.3-3.7 8.3-8.3s-3.7-8.3-8.3-8.3z"
			class="st12"/>
      </g>
			<path d="M-5.7 350.8h423v71.8h-423z" class="st9"/>
			<g>
        <linearGradient id="SVGID_23_" x1="325.07" x2="278.13" y1="804.17" y2="851.13"
						gradientTransform="translate(0 -452)" gradientUnits="userSpaceOnUse">
          <stop offset="0" stop-color="#bf654e"/>
			<stop offset=".1" stop-color="#d18269"/>
			<stop offset=".22" stop-color="#e29b81"/>
			<stop offset=".36" stop-color="#efb094"/>
			<stop offset=".51" stop-color="#f8bea2"/>
			<stop offset=".69" stop-color="#fdc6aa"/>
			<stop offset="1" stop-color="#ffc9ac"/>
        </linearGradient>
				<path fill="url(#SVGID_23_)" d="M315.4 410.9l1.4-67h-32.5l5.6 67"/>
				<path
					d="M341.2 410.9l4.3-67h-35.3l4.1 67M285.2 222.8c-.9-7.6.9-25.8 5.9-30 11.1-4.8 18.2-9 20.5-20.1 0 0-13.2-5.2-7.7-30.5 4-18.2 11.5-18 11.5-18s21.1-2.2 21.9 20.4c.9 22.6 7.7 39.3 11.7 47.8 3.1 6.5-45.6 14.8-59.9 42.5-2.9 5.7-3.9-12.1-3.9-12.1z"
					class="st17"/>
				<path
					d="M232.1 216.1c-.1.1-8.4-.8-8.4 0 0 1.3 8.4 3.7 7.8 3.7-.6.1-8.7-.6-8.8.8-.1.9 9.2 2.2 9.2 2.3-.1.1-8.2 1.2-6.1 1.9 2.1.7 13.2.3 15.9 1.1 3.9 1.2 35.3 22.8 45.6 20.8 6.2-1.2 14.2-50.9 14.4-55 0 0-13.2 2.2-16.3 7.8-4.7 8.5-5.9 28.5-6 30.4 0 1.9-34.9-14.6-37.2-16.2-1.8-1.3-3-2.1-4.2-4.1-.9-1.5-3.7-3-1.7 1.3 2.9 6.3-7.8-1.5-9.2.4-.7 1 5 4.8 5 4.8z"
					class="st17"/>
				<linearGradient id="SVGID_24_" x1="333.64" x2="331.51" y1="599.92" y2="605.76"
								gradientTransform="translate(0 -452)" gradientUnits="userSpaceOnUse">
          <stop offset="0" stop-color="#bf654e"/>
					<stop offset=".19" stop-color="#d5876e"/>
					<stop offset=".4" stop-color="#e7a489"/>
					<stop offset=".6" stop-color="#f4b89c"/>
					<stop offset=".81" stop-color="#fcc5a8"/>
					<stop offset="1" stop-color="#ffc9ac"/>
        </linearGradient>
				<path fill="url(#SVGID_24_)"
					  d="M330.2 150.7a3 3 0 011.9 1.9c.7 1.6.4 2.4.3 3.6.3-.3.8-.9 1-1.2s.4-.7.5-1c.1-.4.3-.8.3-1.2.1-.4 0-.9-.1-1.3-.2-.9-.9-1.8-1.9-1.9-.5-.1-.9 0-1.4.2-.3.2-.6.5-.6.9z"/>
				<circle cx="306.9" cy="148.7" r="1.2" class="st19"/>
				<circle cx="317.6" cy="149.1" r="1.2" class="st19"/>
				<path
					d="M320.3 147.4c-.2 0-.4-.1-.5-.2-.8-1.1-1.8-1.3-3.2-.8-.3.1-.7 0-.8-.4-.1-.3 0-.7.4-.8 1.9-.7 3.5-.3 4.6 1.3.2.3.1.7-.1.9h-.4zM304.4 147.2c-.1 0-.2 0-.3-.1-.3-.2-.3-.6-.2-.8 1.2-1.7 3-2 4.8-.9.3.2.4.6.2.8-.2.3-.6.4-.8.2-.7-.5-2.1-1-3.1.5-.3.2-.5.3-.6.3zM311.1 159.6c-.4 0-1.4-.1-2.1-.7-.9-.7-.4-2.4.5-5.1.2-.8.5-1.6.7-2.4.1-.3.4-.5.7-.4.3.1.5.4.4.7-.2.9-.5 1.7-.7 2.5-.4 1.4-1 3.4-.8 3.8.5.4 1.4.4 1.4.4.3 0 .6.2.7.6 0 .3-.2.6-.6.7 0-.2-.1-.1-.2-.1z"
					class="st19"/>
				<linearGradient id="SVGID_25_" x1="245.49" x2="359.71" y1="659.52" y2="773.73"
								gradientTransform="translate(0 -452)" gradientUnits="userSpaceOnUse">
          <stop offset="0" stop-color="#fff"/>
					<stop offset=".06" stop-color="#dcf4fb"/>
					<stop offset=".16" stop-color="#a9e3f6"/>
					<stop offset=".26" stop-color="#7cd4f1"/>
					<stop offset=".37" stop-color="#56c7ed"/>
					<stop offset=".48" stop-color="#37bdea"/>
					<stop offset=".59" stop-color="#1eb5e7"/>
					<stop offset=".71" stop-color="#0dafe5"/>
					<stop offset=".84" stop-color="#03ace4"/>
					<stop offset="1" stop-color="#00abe4"/>
        </linearGradient>
				<path fill="url(#SVGID_25_)"
					  d="M308.3 180.5c3.6 3.4 8.4 4.2 13 1.3 6.3-2 22.6 2.6 26.3 8.4s3.5 9 3.7 10-14.9.8-21.3 9.4l15.3 11.1 11.5 133.2h-84.6s15.2-95.7 15.2-113.3c0-12.4-3.3-20.1 1.6-30.7 0 0-4.9-2.5-6.6-3.3 1.1-7.2 3.1-12.8 14-17.5 4.9-2.4 10.9-9.6 11.9-8.6z"/>
				<path
					d="M312.4 128.2c1.4 8.1 14.6 21.5 18.6 19.8 6.7-2.8 6.7 7.7.3 11.2-6.4 3.5-20.8 40.1 2.8 40.2 28.7.1 26.6-53.9 9-71.8s-33.4-8.8-40.2 1.7c-8.3 12.8-5.4 30.8-12.5 43.4-4.3 7.7 3.3 17.5 3.3 17.5s15.3-3 17.8-17.5c0 0-10.9-6.1-7.7-30.5.1 0 8.2-6.2 8.6-14z"
					class="st19"/>
				<path d="M312.3 185.8c1.4.2 2.7.5 4 .5 1.3.1 2.6-.1 4-.2-1.1.8-2.6 1.1-4 1-1.5-.1-2.8-.6-4-1.3z"
					  class="st21"/>
				<path
					d="M283.3 285.4c-.7 1-9.9 2-9.4 3.4.6 1.9 11.1-.9 10.6-.5-.3.3-8.5 2-8 3.7.5 1.6 9.5-1.2 9.4-1.1s-7.9 3-5.4 3.8 11.3-3.6 14.4-4.4 32.7-19.7 41.7-29.1c5.1-5.3 13.1-55.7 13.3-60.5 0 0-16.7 2-19.9 8.8-3.2 6.9-6.7 40.9-6.7 43.1 0 2.3-25.9 26.8-29.2 26.2-6.2-1-7.8-3.1-9.1-3.5-2.2-.6-2.8 2.1-.3 3.4 7.3 3.8-10.5 3.2-10.6 5.5 0 1.6 9.2 1.2 9.2 1.2z"
					class="st17"/>
				<path
					d="M315.8 166.8c-1.2 0-2.4-.3-3.2-.9-.3-.2-.3-.6-.1-.9.2-.3.6-.3.9-.1 1.3 1 4.2.9 5.6-.4.2-.2.6-.2.9 0 .2.2.2.6 0 .9-1.2 1-2.7 1.4-4.1 1.4z"
					class="st19"/>
				<linearGradient id="SVGID_26_" x1="320.11" x2="313.5" y1="618.74" y2="636.9"
								gradientTransform="translate(0 -452)" gradientUnits="userSpaceOnUse">
          <stop offset="0" stop-color="#bf654e"/>
					<stop offset=".1" stop-color="#d18168"/>
					<stop offset=".23" stop-color="#e19b81"/>
					<stop offset=".36" stop-color="#efaf94"/>
					<stop offset=".52" stop-color="#f8bea2"/>
					<stop offset=".7" stop-color="#fdc6aa"/>
					<stop offset="1" stop-color="#ffc9ac"/>
        </linearGradient>
				<path fill="url(#SVGID_26_)"
					  d="M311.5 172.7c-.5 3-1.4 5.4-3.1 7.9 4.4 1.2 12.9 1.2 12.9 1.2l2.1-9c-2.2.7-8 1-11.9-.1z"/>
				<path
					d="M236.2 222.5l-13.6 1.6a3 3 0 01-3.3-2.6l-3-25.2a3 3 0 012.6-3.3l13.6-1.6a3 3 0 013.3 2.6l3 25.2a3 3 0 01-2.6 3.3z"
					class="st12"/>
				<path
					d="M239.8 219l-2.9-25.2c-.3-2.2-2.3-3.8-4.5-3.5l-13.5 1.6c-1.1.1-2 .7-2.7 1.5s-1 1.9-.8 3l2.9 25.2c.2 2 1.9 3.5 3.8 3.6h.7l13.5-1.6c1.1-.1 2-.7 2.7-1.5.6-1 .9-2 .8-3.1zm-22.5-22.9c-.1-1.1.7-2.1 1.8-2.2l13.5-1.6h.3c1 0 1.8.8 1.9 1.8l2.8 23.7-17.5 2.1-2.8-23.8z"
					class="st19"/>
				<path
					d="M230.8 222.1l-3.1.4c-.2 0-.4-.1-.5-.4l-.1-.4c0-.2.1-.4.4-.5l3.1-.4c.2 0 .4.1.5.4l.1.4c0 .3-.2.5-.4.5zM231.9 209.6c-.5.1-1 .1-1.5.2l-.1-.1c-.4-.6-.7-1.2-1.1-1.8-.2-.3-.1-.2-.4-.2-1 .1-1.9.2-2.9.4-.1 0-.2 0-.2.1-.2.7-.4 1.4-.6 2.2 0 .1-.1.1-.2.1-.3 0-.6.1-1 .1h-.1v-.2l2.1-6.9c0-.2.1-.3.1-.5s0-.3-.2-.4c-.2-.1-.2-.3-.2-.4h.1c.4-.1.8-.1 1.2-.2.1 0 .1 0 .2.1 1.5 2.5 3 4.9 4.5 7.4.3 0 .3 0 .3.1zm-5.7-2.6l2.4-.3c-.5-.9-1-1.8-1.6-2.7-.3 1-.5 2-.8 3z"
					class="st12"/>
				<linearGradient id="SVGID_27_" x1="221.81" x2="233.19" y1="200.34" y2="211.71"
								gradientTransform="rotate(-7.11 227.63 206.47)" gradientUnits="userSpaceOnUse">
          <stop offset="0" stop-color="#003087"/>
					<stop offset=".34" stop-color="#002e83"/>
					<stop offset=".7" stop-color="#002a76"/>
					<stop offset="1" stop-color="#002466"/>
        </linearGradient>
				<path fill="url(#SVGID_27_)"
					  d="M233.2 200.8c-.4-1-1.4-1.7-2.6-1.7h-.4l-7.4.9c-1.3.2-2.3 1.2-2.4 2.4v.6l.9 7.5a2.7 2.7 0 002.7 2.4h.1c2.6-.3 5.3-.7 7.9-1 .1 0 .3-.1.4-.1 1.1-.4 1.8-1.4 1.8-2.5v-.1c-.3-2.6-.7-5.3-1-7.9.1-.2.1-.3 0-.5zm-2.7 8.9l-.1-.1c-.4-.6-.7-1.2-1.1-1.8-.2-.3-.1-.2-.4-.2-1 .1-1.9.2-2.9.4-.1 0-.2 0-.2.1-.2.7-.4 1.4-.6 2.2 0 .1-.1.1-.2.1-.3 0-.6.1-1 .1h-.1v-.2l2.1-6.9c0-.2.1-.3.1-.5s0-.3-.2-.4c-.2-.1-.2-.3-.2-.4h.1c.4-.1.8-.1 1.2-.2.1 0 .1 0 .2.1 1.5 2.5 3 4.9 4.5 7.4 0 0 0 .1.1.1-.4.1-.9.2-1.3.2z"/>
				<linearGradient id="SVGID_28_" x1="226.11" x2="228.55" y1="205.36" y2="205.36"
								gradientTransform="rotate(-7.11 227.63 206.47)" gradientUnits="userSpaceOnUse">
          <stop offset="0" stop-color="#003087"/>
					<stop offset=".34" stop-color="#002e83"/>
					<stop offset=".7" stop-color="#002a76"/>
					<stop offset="1" stop-color="#002466"/>
        </linearGradient>
				<path fill="url(#SVGID_28_)" d="M226.2 207l2.4-.3c-.5-.9-1-1.8-1.6-2.7-.3 1-.5 2-.8 3z"/>
				<g>
          <path
			  d="M259.2 180.6a11.5 11.5 0 00-10.9 15.2l-4 6.2 7.4-1.2a11.5 11.5 0 0019.1-8.6c-.1-6.4-5.3-11.6-11.6-11.6z"
			  class="st7"/>
					<g id="Group_2236_1_" transform="translate(-19.83 -20)">
            <linearGradient id="Ellipse_136_4_" x1="-360.9" x2="-360.9" y1="733.61" y2="733.34"
							gradientTransform="matrix(80 0 0 -80 29151.1 58892.86)" gradientUnits="userSpaceOnUse">
              <stop offset="0" stop-color="#f2f6fa"/>
				<stop offset=".12" stop-color="#edf2f8"/>
				<stop offset=".25" stop-color="#e1e8f2"/>
				<stop offset=".38" stop-color="#ccd7e8"/>
				<stop offset=".51" stop-color="#afbfda"/>
				<stop offset=".65" stop-color="#89a0c8"/>
				<stop offset=".78" stop-color="#5c7bb2"/>
				<stop offset=".91" stop-color="#264f99"/>
				<stop offset="1" stop-color="#003087"/>
            </linearGradient>
						<circle id="Ellipse_136_1_" cx="279" cy="212.1" r="5.2" fill="url(#Ellipse_136_4_)"/>
						<path id="Path_4823_1_"
							  d="M281.2 211.6c0-.1-.1-.2-.3-.2l-1.1-.2-.5-1c-.1-.1-.2-.2-.3-.2-.1 0-.2.1-.3.2l-.5 1-1.1.2c-.2 0-.3.2-.3.4 0 .1 0 .1.1.2l.8.8-.2 1.1c0 .2.1.3.3.4h.2l1-.5 1 .5h.2c.2 0 .3-.1.3-.3v-.1l-.2-1.1.8-.8c.1-.2.1-.3.1-.4z"
							  class="st7"/>
          </g>
					<path
						d="M184.9 191.7c1.4 6.2 7.6 10 13.8 8.6 1.3-.3 2.4-.8 3.5-1.4l6.9 2.5-2.8-6.9a11.49 11.49 0 00-12.7-16.7c-6.3 1.5-10.1 7.7-8.7 13.9z"
						class="st7"/>
					<linearGradient id="Path_436_4_" x1="-423.06" x2="-423.06" y1="710.82" y2="710.51"
									gradientTransform="matrix(104.0002 0 0 -52 44195.02 37146.86)"
									gradientUnits="userSpaceOnUse">
            <stop offset="0" stop-color="#f2f6fa"/>
						<stop offset=".12" stop-color="#edf2f8"/>
						<stop offset=".25" stop-color="#e1e8f2"/>
						<stop offset=".38" stop-color="#ccd7e8"/>
						<stop offset=".51" stop-color="#afbfda"/>
						<stop offset=".65" stop-color="#89a0c8"/>
						<stop offset=".78" stop-color="#5c7bb2"/>
						<stop offset=".91" stop-color="#264f99"/>
						<stop offset="1" stop-color="#003087"/>
          </linearGradient>
					<path id="Path_436_1_" fill="url(#Path_436_4_)"
						  d="M202.2 189.2c0-.7.5-1.3 1.2-1.4.1 0 .2-.2.2-.3v-1.4c0-.3-.3-.6-.6-.6h-13.5c-.3 0-.6.3-.6.6v6.2c0 .3.3.6.6.6H203c.3 0 .6-.3.6-.6v-1.4c0-.1-.1-.3-.2-.3-.7-.1-1.2-.7-1.2-1.4z"/>
					<path id="Path_870_1_" d="M199.3 186.2c-.1 0-.1-.1-.1-.1v-.3c0-.1.1-.1.1-.1l.1.1v.3s0 .1-.1.1z"
						  class="st7"/>
					<path id="Path_871_1_"
						  d="M199.3 191.3c-.1 0-.1-.1-.1-.1v-.6c0-.1.1-.1.1-.1l.1.1v.6s0 .1-.1.1zm0-1.7c-.1 0-.1-.1-.1-.1v-.6c0-.1.1-.1.1-.1l.1.1v.6s0 .1-.1.1zm0-1.7c-.1 0-.1-.1-.1-.1v-.6c0-.1.1-.1.1-.1l.1.1v.6s0 .1-.1.1z"
						  class="st7"/>
					<path id="Path_872_1_" d="M199.3 192.7c-.1 0-.1-.1-.1-.1v-.3c0-.1.1-.1.1-.1l.1.1v.3s0 .1-.1.1z"
						  class="st7"/>
					<path id="Path_873_1_" d="M193 190.3h-2.9c-.1 0-.1-.1-.1-.1l.1-.1h2.9c.1 0 .1.1.1.1s0 .1-.1.1z"
						  class="st27"/>
					<path id="Path_874_1_"
						  d="M193 191h-2.9c-.1 0-.1-.1-.1-.1 0-.1.1-.1.1-.1h2.9c.1 0 .1.1.1.1 0 .1 0 .1-.1.1z"
						  class="st27"/>
					<path id="Path_875_1_" d="M192.1 191.8h-2c-.1 0-.1-.1-.1-.1l.1-.1h2c.1 0 .1.1.1.1s0 .1-.1.1z"
						  class="st27"/>
					<path id="Path_876_1_"
						  d="M201.1 187.1h-.7c-.1 0-.1-.1-.1-.1 0-.1.1-.1.1-.1h.7c.1 0 .1.1.1.1s0 .1-.1.1z"
						  class="st27"/>
					<path id="Path_877_1_" d="M201.1 187.7h-.7c-.1 0-.1-.1-.1-.1l.1-.1h.7c.1 0 .1.1.1.1s0 .1-.1.1z"
						  class="st27"/>
					<path id="Path_878_1_" d="M201.1 188.3h-.7c-.1 0-.1-.1-.1-.1l.1-.1h.7c.1 0 .1.1.1.1s0 .1-.1.1z"
						  class="st27"/>
					<path id="Path_879_1_"
						  d="M201.1 189h-.7c-.1 0-.1-.1-.1-.1 0-.1.1-.1.1-.1h.7c.1 0 .1.1.1.1s0 .1-.1.1z" class="st27"/>
					<path id="Path_880_1_" d="M201.1 189.6h-.7c-.1 0-.1-.1-.1-.1l.1-.1h.7c.1 0 .1.1.1.1s0 .1-.1.1z"
						  class="st27"/>
					<path id="Path_881_1_" d="M201.1 190.3h-.7c-.1 0-.1-.1-.1-.1l.1-.1h.7c.1 0 .1.1.1.1s0 .1-.1.1z"
						  class="st27"/>
					<path id="Path_882_1_"
						  d="M201.1 190.9h-.7c-.1 0-.1-.1-.1-.1 0-.1.1-.1.1-.1h.7c.1 0 .1.1.1.1 0 .1 0 .1-.1.1z"
						  class="st27"/>
					<path id="Path_883_1_" d="M201.1 191.6h-.7c-.1 0-.1-.1-.1-.1l.1-.1h.7c.1 0 .1.1.1.1s0 .1-.1.1z"
						  class="st27"/>
					<path id="Rectangle_302_1_" d="M187.9 180.7h16.9v16.9h-16.9z" class="st4"/>
					<path id="Path_5004_1_"
						  d="M197 189.2c-.1-.1-.2-.2-.3-.2l.2-.2c.1-.1.1-.2.1-.3 0-.2-.1-.4-.2-.5-.2-.2-.4-.2-.6-.2v-.2s0-.1-.1-.1h-.2s-.1 0-.1.1v.2h-.6c-.1 0-.2.1-.2.2v2.3c0 .1.1.2.2.2h.6v.3s0 .1.1.1h.2s.1 0 .1-.1v-.3c.2 0 .4 0 .5-.1s.3-.2.3-.3c.1-.1.1-.3.1-.4.1-.2 0-.3-.1-.5zm-.3.5c0 .1 0 .2-.1.3s-.3.1-.4.1v-.8c.1 0 .3 0 .4.1.1 0 .1.2.1.3zm-.2-.9c-.1.1-.2.1-.3.1v-.7c.1 0 .2 0 .3.1s.1.2.1.3c0 0 0 .1-.1.2zm-.6.5v.8h-.3v-.8h.3zm-.4-.5v-.7h.3v.7h-.3z"
						  class="st7"/>
        </g>
				<path d="M240.3 217.4c-3.1-2.3-6.6-6-4-8.1 1.3-1 3.1 1.6 3.7 2.6" class="st17"/>
      </g>
			<g>
        <path
			d="M218.7 250.4c.1-1.9-13.4-1.7-13-1.7 2.9 0 11.5-1.6 10.7-3.6-.8-1.9-18.5.8-17.8-1.6.5-2 7.3-2.7 4.5-5.4-1.6-1.5-8.6 3-8.6 3-7.3 2.8-10.1 2.9-10.1 2.9s-46.5-1.1-47.3-3.3c-.8-2.1-14.8-42.2-14.8-42.2l-25.9 9.8s14.2 47 24.4 54c13.1 9 46.6 1.2 67.8-2.9 8.3 1.5 24 .9 24-.4 0-1.4-8.5-2.7-8.5-2.7 2.2.1 12.1.4 12.1-1.3s-10.6-2-10.6-2c4.2.3 13.1-1.2 13.1-2.6z"
			class="st17"/>
				<linearGradient id="SVGID_29_" x1="70.98" x2="149.09" y1="807.74" y2="807.74"
								gradientTransform="translate(0 -452)" gradientUnits="userSpaceOnUse">
          <stop offset="0" stop-color="#002466"/>
					<stop offset=".09" stop-color="#002871"/>
					<stop offset=".26" stop-color="#002d7e"/>
					<stop offset=".48" stop-color="#002f85"/>
					<stop offset="1" stop-color="#003087"/>
        </linearGradient>
				<path fill="url(#SVGID_29_)"
					  d="M148.9 293.1c-14.2 4.9-46.7 8.2-74.1 0-9.1 12.1-.2 77.4 8.4 100.1 0 0 53.9 40.2 57.9 19 3.6-19 9.1-95 7.8-119.1z"/>
				<linearGradient id="SVGID_30_" x1="17.4" x2="14.11" y1="755.05" y2="725.97"
								gradientTransform="rotate(28.5 1048.94 791.87)" gradientUnits="userSpaceOnUse">
          <stop offset="0" stop-color="#ebeced"/>
					<stop offset=".93" stop-color="#fdfdfe"/>
					<stop offset="1" stop-color="#fff"/>
        </linearGradient>
				<path fill="url(#SVGID_30_)"
					  d="M188.9 260.7l-29.8 6.3-20.8-11 7.9-17.3 29.1 3.4c4 .5 16.2 12.6 13.6 18.6z"/>
				<path
					d="M157.3 139.3c-.6-1.9.3-15.4-1.3-20.4l-24.4 10.4-23.4 12.7 3.9 20.7-3 7 22.5 11.4 6.7-13.8c1.3.2 2.2.3 2.2.3 15.1.6 15.3-9.6 15.9-13.2.6-3.6 1.5-4 3.9-5.7 2.5-1.7-2.4-7.5-3-9.4z"
					class="st17"/>
				<linearGradient id="SVGID_31_" x1="127.76" x2="123.44" y1="609.86" y2="621.73"
								gradientTransform="translate(0 -452)" gradientUnits="userSpaceOnUse">
          <stop offset="0" stop-color="#bf654e"/>
					<stop offset=".1" stop-color="#d18168"/>
					<stop offset=".23" stop-color="#e19b81"/>
					<stop offset=".36" stop-color="#efaf94"/>
					<stop offset=".52" stop-color="#f8bea2"/>
					<stop offset=".7" stop-color="#fdc6aa"/>
					<stop offset="1" stop-color="#ffc9ac"/>
        </linearGradient>
				<path fill="url(#SVGID_31_)"
					  d="M130.5 165.2c-3.6-1.3-10-6-11.7-7.4-.5 3.1-7.9 4.1-6.7 5 2.2 1.8 23.7 9.8 23.7 9.8l2.6-5.3c-3.4-.8-5.9-1.4-7.9-2.1z"/>
				<path
					d="M129 100.8c-19.3 3-28.9 20.3-22.8 40.9 0 0 3.3 12.3 3.9 17.1.6 4.9 2.3 4.2 9.2 4 5.7-.2 11.1-8.3 12.7-11 .2-.4.1-.9-.3-1-3-1.3-6.1-10.3-1.7-13.1 4.8-3.1 6.7.5 8.6 3.1 2 2.6 2-2.6 4.6-4.4 2.7-1.7 2.9-8 5.9-10.1 1.2-.8 2.8 1 3.7.5 1.3-.7.6-3.5 2.2-4.1 9.2-3.1-8-24.8-26-21.9z"
					class="st19"/>
				<linearGradient id="SVGID_32_" x1="129.67" x2="136.33" y1="586.48" y2="604.8"
								gradientTransform="translate(0 -452)" gradientUnits="userSpaceOnUse">
          <stop offset="0" stop-color="#bf654e"/>
					<stop offset=".09" stop-color="#ce7d65"/>
					<stop offset=".23" stop-color="#e0997e"/>
					<stop offset=".37" stop-color="#eeae93"/>
					<stop offset=".54" stop-color="#f8bda1"/>
					<stop offset=".72" stop-color="#fdc6a9"/>
					<stop offset="1" stop-color="#ffc9ac"/>
        </linearGradient>
				<path fill="url(#SVGID_32_)"
					  d="M135.1 141.1c-1 .2-1.9 1.2-2.3 2.3-.8 1.9-.5 2.9-.4 4.4-.3-.3-.9-1-1.2-1.4-.2-.4-.5-.8-.7-1.3s-.3-.9-.4-1.4c-.1-.5-.1-1 .1-1.6.2-1.1 1.1-2.2 2.3-2.4.6-.1 1.1 0 1.6.2.5.3.9.7 1 1.2z"/>
				<path
					d="M152.9 133.3c-.1 0-.2 0-.4-.1-.3-.2-.3-.6-.1-.9.4-.5 1.6-2.2 4.4-2.7.3-.1.6.2.7.5.1.3-.2.6-.5.7-2 .3-3 1.4-3.6 2.2-.1.2-.3.3-.5.3z"
					class="st19"/>
				<circle cx="155.7" cy="135" r="1.2" class="st19"/>
				<path
					d="M177.1 263.2a86.02 86.02 0 00-4.6-10.7c-.8-1.8-1.7-3.5-2.6-5.3-.9-1.7-1.9-3.5-3.1-5 1.4 1.4 2.4 3.1 3.4 4.8s2 3.4 2.9 5.1c.9 1.7 1.8 3.5 2.7 5.3.8 1.8 1.7 3.6 2.3 5.5l-1 .3z"
					class="st32"/>
				<path
					d="M154.9 158.5s-.1 0 0 0c-2.3-.3-4.1-1.6-5.1-3.7-.1-.3 0-.7.3-.8s.7 0 .8.3c.8 1.7 2.2 2.7 4.1 3 .3.1.6.4.5.7 0 .2-.3.5-.6.5z"
					class="st19"/>
				<path
					d="M240.9 252.4c-.2-1.9-11.8-1.4-11.4-1.5 2.8-.4 10.5-1.2 9.5-3s-20.9-.6-20.7-3.1c.2-2 7.6-3.3 5.7-6.7-1.1-1.9-9.6 2.8-9.6 2.8-6.8 3.8-10.7 8.3-10.7 8.3s-45.8 5.8-46.9 3.8-21-39.5-21-39.5L111.6 227s21.2 44.3 32.3 49.7c14.4 7 46.2-5.8 66.6-13.1 5.2-.2 23.4-.5 23.7-1.7s-8.6-3.2-8.6-3.2c2.2-.3 13.8.1 13.6-1.6-.3-1.7-9.6-2.1-9.6-2.1 4-.2 11.4-1.3 11.3-2.6z"
					class="st17"/>
				<path
					d="M217.1 272.6c-.3 0-.5-.2-.5-.5-.1-.7-2.4-18 3.4-24.8 1.5-1.8 3.5-2.7 5.9-2.7 2.9 0 5.2.9 6.8 2.7 4 4.6 2.7 14 1.7 21.6-.2 1.1-.3 2.2-.4 3.2 0 .3-.3.5-.6.5s-.5-.3-.5-.6c.1-1 .3-2.1.4-3.2 1-7.3 2.3-16.5-1.4-20.7-1.4-1.6-3.3-2.3-5.9-2.3-2.1 0-3.7.8-5.1 2.3-5.6 6.4-3.2 23.8-3.2 23.9 0 .3-.2.5-.6.6.1 0 0 0 0 0z"
					class="st32"/>
				<linearGradient id="SVGID_33_" x1="227.1" x2="227.1" y1="721.48" y2="726.63"
								gradientTransform="translate(0 -452)" gradientUnits="userSpaceOnUse">
          <stop offset="0" stop-color="#003087"/>
					<stop offset="1" stop-color="#002466"/>
        </linearGradient>
				<path fill="url(#SVGID_33_)" d="M247.8 274.6h-34.7l-6.7-5.1h34.7z"/>
				<path d="M247.8 313h-34.7l-8-6.1h34.7z" class="st7"/>
				<linearGradient id="SVGID_34_" x1="209.1" x2="209.1" y1="721.5" y2="765"
								gradientTransform="translate(0 -452)" gradientUnits="userSpaceOnUse">
          <stop offset="0" stop-color="#003087"/>
					<stop offset="1" stop-color="#002466"/>
        </linearGradient>
				<path fill="url(#SVGID_34_)" d="M205.1 306.9l1.3-37.4 6.7 5.1V313z"/>
				<linearGradient id="SVGID_35_" x1="230.45" x2="230.45" y1="726.6" y2="765"
								gradientTransform="translate(0 -452)" gradientUnits="userSpaceOnUse">
          <stop offset="0" stop-color="#003087"/>
					<stop offset=".34" stop-color="#002e83"/>
					<stop offset=".7" stop-color="#002a76"/>
					<stop offset="1" stop-color="#002466"/>
        </linearGradient>
				<path fill="url(#SVGID_35_)" d="M213.1 274.6h34.7V313h-34.7z"/>
				<circle cx="230.4" cy="294.1" r="9.3" class="st12" transform="rotate(-9.18 230.37 294.12)"/>
				<circle cx="230.5" cy="294.1" r="8.4" class="st7"/>
				<circle cx="230.4" cy="294.1" r="8.1" class="st12"/>
				<g id="XMLID_1_">
          <g id="XMLID_2_">
            <g id="XMLID_5_">
              <g id="XMLID_8_">
                <g id="XMLID_11_">
                  <path id="XMLID_13_" d="M235.6 294.9v-.8h1v-.2h-1v-.8h1.1v-.2h-1.4v2.3h1.5v-.3z" class="st7"/>
					<path id="XMLID_12_" d="M231.6 294.8l-.7-1.9h-.4l.9 2.3H231.7l.9-2.3h-.2z" class="st7"/>
                </g>
				  <g id="XMLID_9_">
                  <path id="XMLID_10_"
						d="M237.1 292.9c0 .1 0 .1 0 0zm0 .1c0-.1 0-.1 0 0zm.1 0c0 .1-.1.1-.1.1-.1 0-.1-.1-.1-.1l.1-.1c.1-.1.1 0 .1.1zm0 0c0-.1-.1-.2-.2-.2s-.1.1-.1.2.1.2.2.2c.1-.1.1-.1.1-.2z"
						class="st7"/>
                </g>
              </g>
				<path id="XMLID_7_"
					  d="M234.5 294.3c0 .3-.1.7-.7.7-.4 0-.6-.2-.6-.7v-1.5h-.2v1.5c0 .5.4.9.9.9s.9-.4.9-.9v-1.4h-.2l-.1 1.4z"
					  class="st7"/>
				<path id="XMLID_6_"
					  d="M229.9 294.3c0 .3-.1.7-.7.7-.4 0-.6-.2-.6-.7v-1.5h-.3v1.5c0 .5.4.9.9.9s.9-.4.9-.9v-1.4h-.2v1.4z"
					  class="st7"/>
            </g>
			  <path id="XMLID_4_"
					d="M227.9 294.8c-.2.2-.5.2-.6.2-.6 0-.9-.4-.9-1s.4-1 .9-1c.2 0 .5.1.6.2v-.3c-.1-.1-.4-.1-.6-.1-.8 0-1.3.6-1.3 1.2 0 .8.6 1.2 1.3 1.2.2 0 .5-.1.7-.1l-.1-.3z"
					class="st7"/>
			  <path id="XMLID_3_"
					d="M224.9 292.9h-.4c.1.1.1.1.1.3l-.9 2h.3l.3-.7h1l.3.7h.4l-1.1-2.3zm-.6 1.4l.4-1 .4 1h-.8z"
					class="st7"/>
          </g>
        </g>
				<g>
          <path
			  d="M222.2 278.3c-.2 0-.5-.2-.5-.4-.3-1-6.3-23.5-.6-30.9 1.2-1.6 2.8-2.4 4.9-2.4 2.9 0 5.4 1.2 7.4 3.5 5.9 6.7 6.6 21.8 5.6 29.7 0 .3-.3.5-.6.5s-.5-.3-.5-.6c.9-7.8.3-22.5-5.4-28.9-1.8-2.1-4-3.1-6.6-3.1-1.7 0-3 .6-4 1.9-5.3 7 .7 29.7.8 30s-.1.6-.5.7z"
			  class="st32"/>
        </g>
				<path
					d="M229.4 247.2v-.5l4.6.2 1.4 3-2.6.5zM232 251.4l.6-.5s3.3-.1 4.1.2 2.3 2.4 1.6 2.7c-.9.4-4.4.8-4.4.8l-1.9-3.2zM233 255.5l.3-.1s3.9.5 4.4.8c.6.3.4 1.8.4 1.8s-1.8.5-4.6.5c-.9.1-.5-3-.5-3z"
					class="st17"/>
				<linearGradient id="SVGID_36_" x1="62.3" x2="205.67" y1="724.68" y2="724.68"
								gradientTransform="translate(0 -452)" gradientUnits="userSpaceOnUse">
          <stop offset="0" stop-color="#ebeced"/>
					<stop offset=".12" stop-color="#f0f1f2"/>
					<stop offset=".47" stop-color="#fbfcfc"/>
					<stop offset=".86" stop-color="#fff"/>
					<stop offset=".88" stop-color="#fff"/>
					<stop offset="1" stop-color="#fff"/>
        </linearGradient>
				<path fill="url(#SVGID_36_)"
					  d="M159.3 251.3s-8.7-20.9-10.9-26.6c-3.5-9.3-10.9-38.8-16.7-43.6-4.2-3.5-21-11.4-22.5-11.4-9.3 0-30.5 21.3-32.8 39.6-9.4 39.4-14.9 143.4-14 153.2s80.2 17.3 89.8 10.6c1.5-18-2.3-85.1-3.1-89.4 8.2 6.6 56.4-14.5 56.4-14.5 1-1.1-2.5-18.7-8.4-21.9-5.8-2.8-37.8 4-37.8 4z"/>
				<path
					d="M149.6 284c1 14.2 2.2 32.1 2.7 46.4.3 7.1.5 14.2.7 21.4.1 3.6.1 7.1.1 10.7 0 1.8 0 3.6-.1 5.4l-.1 2.7c-.1.9-.2 1.8-.2 2.8l-2.1-.3.2-2.6.1-2.6v-5.3c0-3.6 0-7.1-.1-10.7l-.2-21.3-1-46.6zM106 210.6c.2 7.7 2.2 15.1 4.8 22.2 2.7 7.1 6.3 13.8 10.2 20.3 4 6.5 8.4 12.7 13.1 18.6 2.4 2.9 4.8 5.8 7.4 8.6 3.2 2.6 8.1 4.1 8.1 4.1s-6.3-.8-9.2-3.3c-2.8-2.6-5.5-5.1-8-8.1s-4.7-6.1-7-9.2a144.12 144.12 0 01-11.6-19.9c-1.6-3.5-3.1-7.1-4.3-10.7-1.3-3.6-2.2-7.4-2.9-11.2-.5-3.7-.8-7.6-.6-11.4zM189.2 258.4c1.3 2.4 2 5.1 2.6 7.8.5 2.7.8 5.5 1.1 8.2l-1.1.1c-.1-2.8-.2-5.5-.5-8.2-.4-2.7-.9-5.4-2.1-7.9z"
					class="st32"/>
				<circle cx="198.6" cy="270.7" r="1.5" class="st32"/>
				<path
					d="M138.4 201.4c-1-1.2-2-2.3-3.1-3.3l-2.2-6-.4-1-.9.6-2.3 1.5-12.1-9-6.3-4.7c-2.1-1.6-4.2-3.1-6.2-4.8 1.7 2 3.8 3.6 5.7 5.4 2 1.7 4 3.4 6 5l6.1 5 6.2 4.8.4.3.5-.3 1.9-1.2 1.9 5.2.1.2.1.1a53.09 53.09 0 007.3 6.1 13 13 0 00-2.7-3.9z"
					class="st32"/>
      </g>
			<circle cx="203.6" cy="221.9" r="193.2" class="st4"/>
    </g>
  </g>
</svg>
