<svg xmlns="http://www.w3.org/2000/svg" viewBox="0 0 104 129.998">
  <g id="Group_3149" transform="translate(-635.996 -156.002)">
    <path id="Subtraction_22" d="M52,130a65.235,65.235,0,0,1-15.426-1.844,64.441,64.441,0,0,1-14.1-5.236A65.312,65.312,0,0,1,.006,104H2.527a64.23,64.23,0,0,0,4.932,5.547,62.969,62.969,0,0,0,20.025,13.5,62.918,62.918,0,0,0,59.734-5.8A63.323,63.323,0,0,0,101.479,104H104a65.342,65.342,0,0,1-22.473,18.918A64.757,64.757,0,0,1,52,130ZM2.525,26h0L0,26A65.272,65.272,0,0,1,22.475,7.08a64.53,64.53,0,0,1,14.1-5.236,65.468,65.468,0,0,1,30.855,0A64.775,64.775,0,0,1,93.865,15.277,65.454,65.454,0,0,1,104,26l-2.521,0A63.015,63.015,0,0,0,2.525,26Z" transform="translate(635.994 156.002)" fill="#003087"/>
  </g>
</svg>
