<svg data-name="Deco Icon Coupon/ Rewards" xmlns="http://www.w3.org/2000/svg" width="180" height="180"><defs><linearGradient id="a" x1=".5" y1="-.195" x2=".5" y2="1.994" gradientUnits="objectBoundingBox"><stop offset="0" stop-color="#f2f6fa"/><stop offset=".124" stop-color="#edf2f8"/><stop offset=".252" stop-color="#e1e8f2"/><stop offset=".383" stop-color="#ccd7e8"/><stop offset=".514" stop-color="#afbfda"/><stop offset=".648" stop-color="#89a0c8"/><stop offset=".782" stop-color="#5c7bb2"/><stop offset=".914" stop-color="#264f99"/><stop offset="1" stop-color="#003087"/></linearGradient></defs><path data-name="Path 436" d="M148.4 73a15.614 15.614 0 0 1 13-15.386 3.2 3.2 0 0 0 2.6-3.18V40a6 6 0 0 0-6-6H14a6 6 0 0 0-6 6v66a6 6 0 0 0 6 6h144a6 6 0 0 0 6-6V91.574a3.2 3.2 0 0 0-2.6-3.18A15.617 15.617 0 0 1 148.4 73z" transform="translate(4 17.002)" fill="url(#a)"/><path data-name="Path 870" d="M121.785 58.245a1.5 1.5 0 0 1-1.5-1.5v-3a1.5 1.5 0 0 1 3 0v3a1.5 1.5 0 0 1-1.5 1.5z" fill="#003087"/><path data-name="Path 871" d="M121.785 112.665a1.5 1.5 0 0 1-1.5-1.5v-6.6a1.5 1.5 0 0 1 3 0v6.6a1.5 1.5 0 0 1-1.5 1.5zm0-18.133a1.5 1.5 0 0 1-1.5-1.5v-6.6a1.5 1.5 0 1 1 3 0v6.6a1.5 1.5 0 0 1-1.5 1.5zm0-18.135a1.5 1.5 0 0 1-1.5-1.5v-6.6a1.5 1.5 0 1 1 3 0v6.6a1.5 1.5 0 0 1-1.5 1.5z" fill="#003087"/><path data-name="Path 872" d="M121.785 127.2a1.5 1.5 0 0 1-1.5-1.5v-3a1.5 1.5 0 0 1 3 0v3a1.5 1.5 0 0 1-1.5 1.5z" fill="#003087"/><path data-name="Path 873" d="M54.3 101.445H23.445a1.5 1.5 0 1 1 0-3H54.3a1.5 1.5 0 0 1 0 3z" fill="#00a9b6" opacity=".5"/><path data-name="Path 874" d="M54.3 109.56H23.445a1.5 1.5 0 1 1 0-3H54.3a1.5 1.5 0 0 1 0 3z" fill="#00a9b6" opacity=".5"/><path data-name="Path 875" d="M45.24 117.69H23.445a1.5 1.5 0 1 1 0-3H45.24a1.5 1.5 0 0 1 0 3z" fill="#00a9b6" opacity=".5"/><path data-name="Path 876" d="M140.995 67.305h-7.81a1.5 1.5 0 0 1 0-3h7.81a1.5 1.5 0 0 1 0 3z" fill="#00a9b6" opacity=".5"/><path data-name="Path 877" d="M140.995 74.175h-7.81a1.5 1.5 0 0 1 0-3h7.81a1.5 1.5 0 0 1 0 3z" fill="#00a9b6" opacity=".5"/><path data-name="Path 878" d="M140.995 81.045h-7.81a1.5 1.5 0 0 1 0-3h7.81a1.5 1.5 0 0 1 0 3z" fill="#00a9b6" opacity=".5"/><path data-name="Path 879" d="M140.995 87.915h-7.81a1.5 1.5 0 0 1 0-3h7.81a1.5 1.5 0 0 1 0 3z" fill="#00a9b6" opacity=".5"/><path data-name="Path 880" d="M140.995 94.785h-7.81a1.5 1.5 0 1 1 0-3h7.81a1.5 1.5 0 1 1 0 3z" fill="#00a9b6" opacity=".5"/><path data-name="Path 881" d="M140.995 101.655h-7.81a1.5 1.5 0 0 1 0-3h7.81a1.5 1.5 0 0 1 0 3z" fill="#00a9b6" opacity=".5"/><path data-name="Path 882" d="M140.995 108.525h-7.81a1.5 1.5 0 0 1 0-3h7.81a1.5 1.5 0 0 1 0 3z" fill="#00a9b6" opacity=".5"/><path data-name="Path 883" d="M140.995 115.395h-7.81a1.5 1.5 0 0 1 0-3h7.81a1.5 1.5 0 0 1 0 3z" fill="#00a9b6" opacity=".5"/><path data-name="Rectangle 302" fill="none" d="M0 0h180v180H0z"/><path data-name="Path 5004" d="M97.713 90.565a7.405 7.405 0 0 0-3.005-2.377 7.254 7.254 0 0 0 2.006-2.108 7.037 7.037 0 0 0 1.053-3.732 7.63 7.63 0 0 0-2.3-5.394c-1.442-1.5-3.765-2.305-6.911-2.4v-1.972a.637.637 0 0 0-.637-.637h-2.03a.637.637 0 0 0-.637.637v1.967h-6.259a2.345 2.345 0 0 0-2.343 2.343v24.673a2.344 2.344 0 0 0 2.343 2.343h6.259v3.406a.637.637 0 0 0 .637.637h2.03a.637.637 0 0 0 .637-.637v-3.411a15.436 15.436 0 0 0 5.664-.973 7.664 7.664 0 0 0 3.663-3.163 8.964 8.964 0 0 0 1.267-4.657 7.573 7.573 0 0 0-1.437-4.545zm-3.692 4.539a3.84 3.84 0 0 1-1.24 3.066c-.776.685-2.2 1.06-4.229 1.118v-8.364a7.2 7.2 0 0 1 4.132 1.091 3.647 3.647 0 0 1 1.337 3.089zm-2.226-9.7a5.815 5.815 0 0 1-3.243.883v-7.105a5.8 5.8 0 0 1 3.245.936 3.249 3.249 0 0 1 1.057 2.711 3.042 3.042 0 0 1-1.058 2.578zm-6.548 5.508v8.381h-3.591v-8.381zm-3.591-4.607v-7.156h3.591v7.156z" fill="#003087"/></svg>