<svg xmlns="http://www.w3.org/2000/svg" viewBox="0 0 72 72">
    <defs>
        <clipPath id="a">
            <path d="M-966.778-437.271h-55.193a2.1 2.1 0 0 0-2.1 2.1v27a2.1 2.1 0 0 0 2.1 2.1h55.193a2.1 2.1 0 0 0 2.1-2.1v-4.886a2.046 2.046 0 0 0-1.322-1.957 7.011 7.011 0 0 1-4.792-6.659 7.012 7.012 0 0 1 4.792-6.659 2.046 2.046 0 0 0 1.327-1.952v-4.887a2.1 2.1 0 0 0-2.105-2.1Z" transform="translate(1024.071 437.271)" fill="none"/>
        </clipPath>
    </defs>
    <g>
        <path fill="none" d="M-.001-.001h72v72h-72z"/>
        <g>
            <g>
                <g>
                    <path d="M65.696 27.387v-4.886a2.1 2.1 0 0 0-2.1-2.1H8.403a2.1 2.1 0 0 0-2.1 2.1v27a2.1 2.1 0 0 0 2.1 2.1h55.193a2.1 2.1 0 0 0 2.1-2.1v-4.886a2.047 2.047 0 0 0-1.322-1.957 7.011 7.011 0 0 1-4.792-6.659 7.011 7.011 0 0 1 4.792-6.658 2.047 2.047 0 0 0 1.322-1.954Z" fill="#fff"/>
                    <path d="M64.94 31.048a3.817 3.817 0 0 0 2.556-3.661v-4.886a3.9 3.9 0 0 0-3.9-3.9H8.403a3.9 3.9 0 0 0-3.9 3.9v27a3.9 3.9 0 0 0 3.9 3.9h55.193a3.9 3.9 0 0 0 3.9-3.9v-4.886a3.817 3.817 0 0 0-2.556-3.66 5.214 5.214 0 0 1-3.562-4.952 5.214 5.214 0 0 1 3.562-4.955Zm-5.366 4.951a7.011 7.011 0 0 0 4.792 6.659 2.046 2.046 0 0 1 1.327 1.953v4.886a2.1 2.1 0 0 1-2.1 2.1H8.4a2.1 2.1 0 0 1-2.1-2.1v-27a2.1 2.1 0 0 1 2.1-2.1h55.193a2.1 2.1 0 0 1 2.1 2.1v4.886a2.047 2.047 0 0 1-1.327 1.954 7.011 7.011 0 0 0-4.792 6.662Z" fill="#003087"/>
                </g>
                <g>
                    <g>
                        <path d="M47.865 22.238a.6.6 0 0 1-.6-.6v-1.2a.6.6 0 0 1 .6-.6.6.6 0 0 1 .6.6v1.2a.6.6 0 0 1-.6.6Z" fill="#003087"/>
                    </g>
                    <g>
                        <path d="M47.865 48.209a.6.6 0 0 1-.6-.6V45.3a.6.6 0 0 1 .6-.6.6.6 0 0 1 .6.6v2.309a.6.6 0 0 1-.6.6Zm0-5.194a.6.6 0 0 1-.6-.6v-2.309a.6.6 0 0 1 .6-.6.6.6 0 0 1 .6.6v2.309a.6.6 0 0 1-.6.6Zm0-5.194a.6.6 0 0 1-.6-.6v-2.308a.6.6 0 0 1 .6-.6.6.6 0 0 1 .6.6v2.308a.6.6 0 0 1-.6.602Zm0-5.194a.6.6 0 0 1-.6-.6v-2.309a.6.6 0 0 1 .6-.6.6.6 0 0 1 .6.6v2.309a.6.6 0 0 1-.6.596Zm0-5.194a.6.6 0 0 1-.6-.6v-2.31a.6.6 0 0 1 .6-.6.6.6 0 0 1 .6.6v2.308a.6.6 0 0 1-.6.601Z" fill="#003087"/>
                    </g>
                    <g>
                        <path d="M47.865 52.294a.6.6 0 0 1-.6-.6v-1.2a.6.6 0 0 1 .6-.6.6.6 0 0 1 .6.6v1.2a.6.6 0 0 1-.6.6Z" fill="#003087"/>
                    </g>
                </g>
                <g opacity=".4">
                    <g>
                        <path d="M21.999 40.95H9.892a.3.3 0 0 1-.3-.3.3.3 0 0 1 .3-.3h12.107a.3.3 0 0 1 .3.3.3.3 0 0 1-.3.3Z" fill="#00a9b6"/>
                    </g>
                    <g>
                        <path d="M21.999 44.137H9.892a.3.3 0 0 1-.3-.3.3.3 0 0 1 .3-.3h12.107a.3.3 0 0 1 .3.3.3.3 0 0 1-.3.3Z" fill="#00a9b6"/>
                    </g>
                    <g>
                        <path d="M18.441 47.324H9.892a.3.3 0 0 1-.3-.3.3.3 0 0 1 .3-.3h8.549a.3.3 0 0 1 .3.3.3.3 0 0 1-.3.3Z" fill="#00a9b6"/>
                    </g>
                </g>
                <g opacity=".4">
                    <g>
                        <path d="M55.781 25.276h-3.066a.3.3 0 0 1-.3-.3.3.3 0 0 1 .3-.3h3.066a.3.3 0 0 1 .3.3.3.3 0 0 1-.3.3Z" fill="#00a9b6"/>
                    </g>
                    <g>
                        <path d="M55.781 28.422h-3.066a.3.3 0 0 1-.3-.3.3.3 0 0 1 .3-.3h3.066a.3.3 0 0 1 .3.3.3.3 0 0 1-.3.3Z" fill="#00a9b6"/>
                    </g>
                    <g>
                        <path d="M55.781 31.575h-3.066a.3.3 0 0 1-.3-.3.3.3 0 0 1 .3-.3h3.066a.3.3 0 0 1 .3.3.3.3 0 0 1-.3.3Z" fill="#00a9b6"/>
                    </g>
                    <g>
                        <path d="M55.781 34.723h-3.066a.3.3 0 0 1-.3-.3.3.3 0 0 1 .3-.3h3.066a.3.3 0 0 1 .3.3.3.3 0 0 1-.3.3Z" fill="#00a9b6"/>
                    </g>
                    <g>
                        <path d="M55.781 37.874h-3.066a.3.3 0 0 1-.3-.3.3.3 0 0 1 .3-.3h3.066a.3.3 0 0 1 .3.3.3.3 0 0 1-.3.3Z" fill="#00a9b6"/>
                    </g>
                    <g>
                        <path d="M55.781 41.024h-3.066a.3.3 0 0 1-.3-.3.3.3 0 0 1 .3-.3h3.066a.3.3 0 0 1 .3.3.3.3 0 0 1-.3.3Z" fill="#00a9b6"/>
                    </g>
                    <g>
                        <path d="M55.781 44.174h-3.066a.3.3 0 0 1-.3-.3.3.3 0 0 1 .3-.3h3.066a.3.3 0 0 1 .3.3.3.3 0 0 1-.3.3Z" fill="#00a9b6"/>
                    </g>
                    <g>
                        <path d="M55.781 47.324h-3.066a.3.3 0 0 1-.3-.3.3.3 0 0 1 .3-.3h3.066a.3.3 0 0 1 .3.3.3.3 0 0 1-.3.3Z" fill="#00a9b6"/>
                    </g>
                </g>
                <g>
                    <g>
                        <path d="M30.526 30.358a1.568 1.568 0 0 1 1.506 1.621 1.568 1.568 0 0 1-1.508 1.621 1.568 1.568 0 0 1-1.509-1.621 1.568 1.568 0 0 1 1.509-1.621m0-1.2a2.77 2.77 0 0 0-2.709 2.821 2.77 2.77 0 0 0 2.709 2.821 2.77 2.77 0 0 0 2.708-2.821 2.77 2.77 0 0 0-2.708-2.821Z" fill="#003087"/>
                    </g>
                    <g>
                        <path d="M29.543 42.625a.594.594 0 0 1-.362-.123.6.6 0 0 1-.115-.841l9.113-11.968a.6.6 0 0 1 .841-.113.6.6 0 0 1 .115.841l-9.113 11.967a.6.6 0 0 1-.479.237Z" fill="#003087"/>
                    </g>
                    <g>
                        <path d="M37.643 38.507a1.568 1.568 0 0 1 1.509 1.621 1.568 1.568 0 0 1-1.509 1.621 1.568 1.568 0 0 1-1.508-1.621 1.568 1.568 0 0 1 1.508-1.621m0-1.2a2.77 2.77 0 0 0-2.708 2.821 2.77 2.77 0 0 0 2.708 2.821 2.77 2.77 0 0 0 2.709-2.821 2.77 2.77 0 0 0-2.709-2.821Z" fill="#003087"/>
                    </g>
                </g>
            </g>
            <g>
                <g clip-path="url(#a)" transform="translate(6.303 20.401)">
                    <path d="M54.287 13.751c-1.267 3.366-1.245 5.7 0 7.762a6.469 6.469 0 0 0 3.309 2.692v7.089h6.011V13.751Z" fill="#00a9b6" opacity=".4"/>
                </g>
            </g>
        </g>
    </g>
</svg>