<svg data-name="Icon Refer &amp; Earn Gift" xmlns="http://www.w3.org/2000/svg" width="24" height="24"><path data-name="Rectangle 740" fill="none" d="M0 0h24v24H0z"/><g data-name="Group 2452" fill="#6c7680"><g data-name="Group 2451"><path data-name="Path 4895" d="M10.594 12.975h-8.4v7.21A2.814 2.814 0 0 0 5.006 23h5.588z"/><path data-name="Path 4896" d="M13.406 12.975V23h5.588a2.814 2.814 0 0 0 2.812-2.816v-7.21z"/></g><path data-name="Path 4897" d="M21.875 4.616h-3.764a3.408 3.408 0 0 0-.072-3.075A3.328 3.328 0 0 0 14.252.129 4.1 4.1 0 0 0 12 1.729a4.1 4.1 0 0 0-2.252-1.6A3.328 3.328 0 0 0 5.961 1.54a3.407 3.407 0 0 0-.071 3.076H2.124A1.407 1.407 0 0 0 .718 6.023v2.816a1.407 1.407 0 0 0 1.406 1.408h8.466V4.616h-2.3c-.663-.937-.725-1.635-.5-2.019a1.251 1.251 0 0 1 1.415-.427c.9.242 1.21 1.139 1.392 2.447h2.812c.181-1.308.488-2.2 1.391-2.447a1.254 1.254 0 0 1 1.417.427c.221.384.159 1.082-.5 2.019h-2.3v5.631h8.47a1.407 1.407 0 0 0 1.406-1.408V6.023a1.407 1.407 0 0 0-1.418-1.407z"/></g></svg>