<svg xmlns="http://www.w3.org/2000/svg" width="101" height="30">
    <defs>
        <linearGradient id="prefix__a" x1=".915" y1="6.614" x2="-.383" y2="5.945" gradientUnits="objectBoundingBox">
            <stop offset="0" stop-color="#00a0ff" />
            <stop offset=".007" stop-color="#00a1ff" />
            <stop offset=".26" stop-color="#00beff" />
            <stop offset=".512" stop-color="#00d2ff" />
            <stop offset=".76" stop-color="#00dfff" />
            <stop offset="1" stop-color="#00e3ff" />
        </linearGradient>
        <linearGradient id="prefix__b" x1="1.076" y1="17.098" x2="-1.305" y2="17.098" gradientUnits="objectBoundingBox">
            <stop offset="0" stop-color="#ffe000" />
            <stop offset=".409" stop-color="#ffbd00" />
            <stop offset=".775" stop-color="orange" />
            <stop offset="1" stop-color="#ff9c00" />
        </linearGradient>
        <linearGradient id="prefix__c" x1=".862" y1="10.863" x2="-.501" y2="9.093" gradientUnits="objectBoundingBox">
            <stop offset="0" stop-color="#ff3a44" />
            <stop offset="1" stop-color="#c31162" />
        </linearGradient>
        <linearGradient id="prefix__d" x1="-.188" y1="13.583" x2=".421" y2="12.793" gradientUnits="objectBoundingBox">
            <stop offset="0" stop-color="#32a071" />
            <stop offset=".068" stop-color="#2da771" />
            <stop offset=".476" stop-color="#15cf74" />
            <stop offset=".801" stop-color="#06e775" />
            <stop offset="1" stop-color="#00f076" />
        </linearGradient>
    </defs>
    <g data-name="Icon Google Play" transform="translate(-10 -10)">
        <rect data-name="Rectangle 447" width="100.713" height="29.575" rx="4" transform="translate(10 10)" />
        <g data-name="Group 310">
            <path data-name="Path 203"
                d="M107.259 10.6a3.149 3.149 0 013.142 3.15v22.5a3.149 3.149 0 01-3.142 3.15H13.741a3.149 3.149 0 01-3.141-3.15v-22.5a3.149 3.149 0 013.142-3.15h93.519m0-.6h-93.52A3.756 3.756 0 0010 13.75v22.5A3.756 3.756 0 0013.741 40h93.519a3.756 3.756 0 003.74-3.75v-22.5a3.756 3.756 0 00-3.741-3.75z"
                fill="#a6a6a6" />
        </g>
        <g data-name="Group 311" fill="#fff">
            <path data-name="Path 204"
                d="M45.455 17.683a2.031 2.031 0 01-.559 1.5 2.181 2.181 0 01-1.653.666 2.35 2.35 0 11.924-4.512 1.851 1.851 0 01.7.5l-.4.4a1.522 1.522 0 00-1.232-.533 1.8 1.8 0 101.257 3.092 1.419 1.419 0 00.377-.912h-1.624v-.54h2.181a1.918 1.918 0 01.029.339z" />
            <path data-name="Path 204 - Outline"
                d="M43.326 19.951h-.083a2.451 2.451 0 110-4.9 2.416 2.416 0 01.956.2 1.958 1.958 0 01.736.526l.061.07-.543.543-.07-.082a1.42 1.42 0 00-1.151-.5 1.7 1.7 0 101.181 2.922 1.32 1.32 0 00.341-.742h-1.609v-.74h2.365l.015.083a2.024 2.024 0 01.03.352 2.14 2.14 0 01-.587 1.571 2.293 2.293 0 01-1.642.697zm-.082-.2a2.091 2.091 0 001.577-.635 1.939 1.939 0 00.534-1.433 1.824 1.824 0 00-.015-.239h-2v.34h1.628v.1a1.52 1.52 0 01-.4.976 1.9 1.9 0 11-1.327-3.264h.074a1.619 1.619 0 011.162.49l.258-.258a1.761 1.761 0 00-.6-.4 2.219 2.219 0 00-.879-.181h-.076a2.251 2.251 0 10.066 4.5z" />
            <path data-name="Path 205"
                d="M48.914 15.803h-2.052v1.427h1.848v.54h-1.848v1.427h2.05v.553h-2.625v-4.5h2.627z" />
            <path data-name="Path 205 - Outline"
                d="M46.187 15.15h2.827v.753h-2.052v1.227h1.848v.74h-1.848v1.227h2.05v.753h-2.825zm2.627.2h-2.427v4.3h2.425v-.353h-2.05V17.67h1.848v-.34h-1.848v-1.627h2.052z" />
            <path data-name="Path 206" d="M51.352 19.75h-.579v-3.947h-1.256v-.553h3.092v.553h-1.257z" />
            <path data-name="Path 206 - Outline"
                d="M51.452 19.85h-.779v-3.947h-1.256v-.753h3.292v.753h-1.257zm-.579-.2h.379v-3.947h1.257v-.353h-2.892v.353h1.256z" />
            <path data-name="Path 207" d="M54.846 19.75v-4.5h.577v4.5z" />
            <path data-name="Path 207 - Outline" d="M55.523 19.85h-.777v-4.7h.777zm-.577-.2h.377v-4.3h-.377z" />
            <path data-name="Path 208" d="M57.989 19.75h-.578v-3.947h-1.257v-.553h3.092v.553h-1.257z" />
            <path data-name="Path 208 - Outline"
                d="M58.089 19.85h-.778v-3.947h-1.257v-.753h3.292v.753h-1.257zm-.578-.2h.378v-3.947h1.257v-.353h-2.892v.353h1.257z" />
            <path data-name="Path 209"
                d="M65.099 19.168a2.337 2.337 0 01-3.3 0 2.432 2.432 0 010-3.337 2.329 2.329 0 013.3 0 2.424 2.424 0 010 3.334zm-2.872-.377a1.731 1.731 0 002.445 0 1.917 1.917 0 000-2.583 1.731 1.731 0 00-2.445 0 1.919 1.919 0 000 2.583z" />
            <path data-name="Path 209 - Outline"
                d="M63.449 19.95a2.421 2.421 0 01-1.721-.711 2.535 2.535 0 010-3.476 2.429 2.429 0 013.444 0 2.525 2.525 0 01.029 3.444l-.03.032a2.421 2.421 0 01-1.722.711zm0-4.7a2.244 2.244 0 00-1.579.656 2.334 2.334 0 000 3.2 2.237 2.237 0 003.138.016l.016-.019a2.324 2.324 0 000-3.2 2.243 2.243 0 00-1.575-.657zm0 4.151a1.819 1.819 0 01-1.293-.535 2.011 2.011 0 010-2.718 1.831 1.831 0 012.59 0 2.009 2.009 0 010 2.721 1.821 1.821 0 01-1.297.528zm-1.15-.675a1.631 1.631 0 002.3 0 1.808 1.808 0 000-2.445 1.631 1.631 0 00-2.3 0 1.81 1.81 0 000 2.441z" />
            <path data-name="Path 210"
                d="M66.574 19.75v-4.5h.7l2.187 3.5h.025l-.025-.867V15.25h.578v4.5h-.6l-2.288-3.67h-.025l.025.868v2.8z" />
            <path data-name="Path 210 - Outline"
                d="M66.474 19.85v-4.7h.855l2.047 3.276-.016-.54V15.15h.778v4.7h-.755l-2.148-3.446.016.541v2.9zm3.02-.2h.445v-4.3h-.378v2.533l.028.967h-.183l-2.187-3.5h-.545v4.3h.377v-2.7l-.028-.968h.183z" />
        </g>
        <path data-name="Path 211"
            d="M60.851 26.314a3.19 3.19 0 103.2 3.19 3.144 3.144 0 00-3.2-3.19zm0 5.122a1.938 1.938 0 111.8-1.933 1.845 1.845 0 01-1.8 1.935zm-6.985-5.122a3.19 3.19 0 103.2 3.19 3.144 3.144 0 00-3.2-3.19zm0 5.122a1.938 1.938 0 111.8-1.933 1.845 1.845 0 01-1.8 1.935zm-8.309-4.144v1.353h3.238a2.824 2.824 0 01-.737 1.7 3.315 3.315 0 01-2.5.991 3.6 3.6 0 010-7.2 3.45 3.45 0 012.44.967l.955-.955a4.721 4.721 0 00-3.4-1.366 4.955 4.955 0 100 9.909 4.527 4.527 0 003.455-1.391 4.471 4.471 0 001.181-3.162 4.371 4.371 0 00-.073-.845zm33.981 1.046a2.965 2.965 0 00-2.731-2.029 3.031 3.031 0 00-3.008 3.19 3.121 3.121 0 003.166 3.19 3.172 3.172 0 002.658-1.414l-1.087-.725a1.822 1.822 0 01-1.571.882 1.624 1.624 0 01-1.547-.966l4.265-1.765zm-4.349 1.069a1.75 1.75 0 011.667-1.861 1.234 1.234 0 011.184.677zM71.722 32.5h1.4v-9.377h-1.4zm-2.3-5.473h-.048a2.211 2.211 0 00-1.679-.712 3.193 3.193 0 000 6.379 2.173 2.173 0 001.679-.725h.048v.46c0 1.22-.652 1.873-1.7 1.873a1.765 1.765 0 01-1.607-1.136l-1.22.508a3.04 3.04 0 002.827 1.885c1.643 0 3.033-.967 3.033-3.322v-5.731h-1.33zm-1.6 4.411a1.949 1.949 0 111.7-1.933 1.94 1.94 0 01-1.704 1.933zm18.286-8.312h-3.357v9.376h1.4v-3.554h1.954a2.916 2.916 0 100-5.824zm.036 4.519h-1.995v-3.216h1.99a1.607 1.607 0 010 3.214zm8.649-1.346a2.629 2.629 0 00-2.504 1.439l1.243.519a1.326 1.326 0 011.279-.688 1.347 1.347 0 011.472 1.207v.1a3.1 3.1 0 00-1.46-.361c-1.339 0-2.7.736-2.7 2.11a2.167 2.167 0 002.328 2.063 1.975 1.975 0 001.786-.917h.048v.724h1.351v-3.6a2.571 2.571 0 00-2.847-2.593zm-.169 5.138c-.459 0-1.1-.229-1.1-.8 0-.724.8-1 1.484-1a2.5 2.5 0 011.279.313 1.7 1.7 0 01-1.663 1.488zm7.936-4.933l-1.6 4.065h-.048l-1.665-4.065H97.74l2.5 5.681-1.424 3.16h1.46l3.848-8.842zm-12.605 6h1.4v-9.38h-1.4z"
            fill="#fff" />
        <g data-name="Group 313">
            <path data-name="Path 212"
                d="M20.319 17.52a1.5 1.5 0 00-.346 1.054V35.16a1.5 1.5 0 00.346 1.054l.056.054 9.292-9.292v-.219l-9.292-9.292z"
                transform="translate(-2.493 -1.867)" fill="url(#prefix__a)" />
            <path data-name="Path 213"
                d="M36 32.14l-3.1-3.1v-.219l3.1-3.1.07.04 3.67 2.085a1.139 1.139 0 010 2.165L36.066 32.1z"
                transform="translate(-5.724 -3.931)" fill="url(#prefix__b)" />
            <path data-name="Path 214" d="M32.95 33.169L29.782 30l-9.347 9.347a1.22 1.22 0 001.559.046l10.956-6.224"
                transform="translate(-2.608 -5.001)" fill="url(#prefix__c)" />
            <path data-name="Path 215" d="M32.95 23.618l-10.956-6.225a1.22 1.22 0 00-1.559.046l9.347 9.347z"
                transform="translate(-2.608 -1.785)" fill="url(#prefix__d)" />
            <g data-name="Group 312">
                <path data-name="Path 216"
                    d="M30.272 28.099l-10.886 6.185a1.249 1.249 0 01-1.5.008l-.056.056.056.055a1.249 1.249 0 001.5-.008l10.956-6.228z"
                    opacity=".2" style="isolation:isolate" />
                <path data-name="Path 217"
                    d="M17.826 34.239a1.5 1.5 0 01-.346-1.054v.11a1.5 1.5 0 00.346 1.053l.056-.056z" opacity=".12"
                    style="isolation:isolate" />
            </g>
            <path data-name="Path 218"
                d="M34.011 25.973l-3.739 2.126.07.07 3.67-2.085a1.317 1.317 0 00.785-1.085 1.4 1.4 0 01-.786.974z"
                opacity=".12" style="isolation:isolate" />
            <path data-name="Path 219"
                d="M19.386 15.715l14.621 8.312a1.4 1.4 0 01.786.974 1.314 1.314 0 00-.786-1.086l-14.626-8.31c-1.048-.6-1.906-.1-1.906 1.1v.11c.005-1.2.862-1.693 1.911-1.1z"
                fill="#fff" opacity=".25" style="isolation:isolate" />
        </g>
    </g>
</svg>