<svg xmlns="http://www.w3.org/2000/svg" xmlns:xlink="http://www.w3.org/1999/xlink" width="180" height="180">
	<defs>
		<linearGradient id="a" x1=".5" y1="1.265" x2=".5" y2="-.375">
			<stop offset="0" stop-color="#f2f6fa"/>
			<stop offset=".124" stop-color="#edf2f8"/>
			<stop offset=".252" stop-color="#e1e8f2"/>
			<stop offset=".383" stop-color="#ccd7e8"/>
			<stop offset=".514" stop-color="#afbfda"/>
			<stop offset=".648" stop-color="#89a0c8"/>
			<stop offset=".782" stop-color="#5c7bb2"/>
			<stop offset=".914" stop-color="#264f99"/>
			<stop offset="1" stop-color="#003087"/>
		</linearGradient>
		<linearGradient id="b" y1="0" y2="1.64" xlink:href="#a"/>
		<clipPath id="c">
			<circle cx="15.401" cy="15.401" r="15.401" fill="none"/>
		</clipPath>
	</defs>
	<g>
		<path
			d="M117.234 22.324a11.663 11.663 0 00-4.7 1.05v.026h-.047c-.108.058-.219.108-.326.173l.057-.173h-67.3a12.192 12.192 0 017.173 11.128v12.21h74.119a3 3 0 003-3v-9.211a12.162 12.162 0 00-11.976-12.2z"
			transform="translate(22.459 11.162)" fill="url(#a)"/>
		<path fill="none" d="M0 0h180v180H0z"/>
		<path
			d="M39.987 22.3A12.135 12.135 0 0027.9 34.48v100.95a2.891 2.891 0 002.879 2.9h71.316c6.693 0 12.813-5.5 12.117-12.209l.054.044V34.546a11.816 11.816 0 0111.658-12.223z"
			transform="translate(13.95 11.15)" fill="url(#b)"/>
		<g>
			<path d="M100.5 60.042H52.563a1.5 1.5 0 010-3H100.5a1.5 1.5 0 010 3z" fill="#00a9b6" opacity=".5"/>
		</g>
		<g>
			<path d="M100.5 74.277H52.563a1.5 1.5 0 010-3H100.5a1.5 1.5 0 010 3z" fill="#00a9b6" opacity=".5"/>
		</g>
		<g>
			<path d="M100.5 88.512H52.563a1.5 1.5 0 010-3H100.5a1.5 1.5 0 010 3z" fill="#00a9b6" opacity=".5"/>
		</g>
		<g>
			<path d="M100.5 102.75H52.563a1.5 1.5 0 010-3H100.5a1.5 1.5 0 010 3z" fill="#00a9b6" opacity=".5"/>
		</g>
		<g>
			<path d="M100.5 116.982H52.563a1.5 1.5 0 010-3H100.5a1.5 1.5 0 010 3z" fill="#00a9b6" opacity=".5"/>
		</g>
		<g>
			<path d="M116.379 74.277h-6.849a1.5 1.5 0 010-3h6.849a1.5 1.5 0 010 3z" fill="#00a9b6" opacity=".5"/>
		</g>
		<g>
			<path d="M116.379 88.512h-6.849a1.5 1.5 0 010-3h6.849a1.5 1.5 0 010 3z" fill="#00a9b6" opacity=".5"/>
		</g>
		<g>
			<path d="M116.379 102.75h-6.849a1.5 1.5 0 010-3h6.849a1.5 1.5 0 010 3z" fill="#00a9b6" opacity=".5"/>
		</g>
		<g>
			<path d="M116.379 116.982h-6.849a1.5 1.5 0 010-3h6.849a1.5 1.5 0 010 3z" fill="#00a9b6" opacity=".5"/>
		</g>
		<path
			d="M30.71 107.793h77.128a12.164 12.164 0 01-12.117-12.209v-9.208a3 3 0 00-3-3H21.594a3 3 0 00-3 3v9.208a12.164 12.164 0 0012.116 12.209z"
			transform="translate(9.297 41.688)" fill="url(#b)"/>
		<g>
			<g clip-path="url(#c)" transform="translate(96.311 37.354)">
				<path
					d="M40.844 21.655a11.955 11.955 0 00-11.908 12v99.462a2.85 2.85 0 002.837 2.85h70.263c6.6 0 12.622-5.421 11.937-12.028l.054.042V33.723a11.638 11.638 0 0111.485-12.042z"
					transform="translate(-81.842 -26.527)" fill="url(#b)"/>
			</g>
		</g>
		<path
			d="M151.101 85.44l-8.423-8.423a3.438 3.438 0 00-2.85-.969L129.6 65.827a22.3 22.3 0 10-4.818 4.822l10.078 10.079a3.459 3.459 0 00.924 3.18l8.422 8.422a3.467 3.467 0 004.89 0l2-2a3.466 3.466 0 000-4.887zM127.05 54.15a15.494 15.494 0 11-4.483-12.25 15.4 15.4 0 014.483 12.25z"
			fill="#003087"/>
		<g fill="#003087">
			<path
				d="M116.592 45.122a6.016 6.016 0 00-5.325-2.717 6.211 6.211 0 00-5.208 2.72 1.991 1.991 0 00.9 2.991 2.066 2.066 0 002.486-.793 2.131 2.131 0 011.855-1 1.881 1.881 0 011.812.919 1.861 1.861 0 01-.114 1.86 9.272 9.272 0 01-1.326 1.4 8.73 8.73 0 00-1.839 2.1 4.605 4.605 0 00-.555 1.882 2.012 2.012 0 00.51 1.535 2.083 2.083 0 001.59.659 2.031 2.031 0 002.039-1.779 1.6 1.6 0 01.231-.776 5.884 5.884 0 011.121-1.309 13.245 13.245 0 001.842-2.115 5.41 5.41 0 00-.018-5.578z"/>
			<path d="M111.321 58.33a2.323 2.323 0 00-2.356 2.342 2.351 2.351 0 004.7 0 2.318 2.318 0 00-2.344-2.342z"/>
		</g>
	</g>
</svg>
