<svg data-name="Icon Membership" xmlns="http://www.w3.org/2000/svg" width="24" height="24"><path data-name="Rectangle 738" fill="none" d="M0 0h24v24H0z"/><path data-name="Path 4893" d="M22 3H2a2.006 2.006 0 0 0-2 2v14a2.006 2.006 0 0 0 2 2h20a2 2 0 0 0 1.991-2L24 5a2.006 2.006 0 0 0-2-2zM8 6a3 3 0 0 1 3 3 3 3 0 0 1-3 3 3 3 0 0 1-3-3 3 3 0 0 1 3-3zm6 12H2v-1c0-2 4-3.1 6-3.1s6 1.1 6 3.1zm7.231-7h-4.294a.8.8 0 0 1-.77-.833.8.8 0 0 1 .77-.833h4.294a.8.8 0 0 1 .769.833.8.8 0 0 1-.769.833zm0-3.333h-6.128a.8.8 0 0 1-.769-.834.8.8 0 0 1 .769-.833h6.128a.8.8 0 0 1 .769.833.8.8 0 0 1-.769.834z" fill="#6c7680"/></svg>