<svg xmlns="http://www.w3.org/2000/svg" viewBox="12.1 9 45.82 54.05">
    <path d="M28.359 10.4h24.2a4 4 0 0 1 4 4v43.2a4 4 0 0 1-4 4h-24.2a4 4 0 0 1-4-4V14.4a4 4 0 0 1 4-4Z" fill="#fff"/>
    <path d="m23.894 16.464 32.98 6.658v-6.658Z" fill="#00a9b6" opacity=".4"/>
    <path d="M29.877 9H51.04a6.877 6.877 0 0 1 6.877 6.877v40.294a6.877 6.877 0 0 1-6.877 6.877H29.877A6.877 6.877 0 0 1 23 56.171V15.877A6.877 6.877 0 0 1 29.877 9ZM51.04 61.211a5.046 5.046 0 0 0 5.041-5.041V15.877a5.046 5.046 0 0 0-5.041-5.041H29.877a5.046 5.046 0 0 0-5.041 5.041v40.294a5.046 5.046 0 0 0 5.041 5.041Z" fill="#003087"/>
    <path d="M56.974 16.464H23.893a.612.612 0 0 1-.612-.612.612.612 0 0 1 .612-.612h33.081a.612.612 0 0 1 .612.612.612.612 0 0 1-.612.612ZM56.974 53.183H23.893a.612.612 0 0 1-.612-.612.612.612 0 0 1 .612-.612h33.081a.612.612 0 0 1 .612.612.612.612 0 0 1-.612.612ZM40.434 54.639a2.157 2.157 0 1 1-2.157 2.157 2.159 2.159 0 0 1 2.157-2.157Zm0 3.7a1.545 1.545 0 1 0-1.545-1.543 1.547 1.547 0 0 0 1.545 1.543Z" fill="#003087"/>
    <path d="M37.609 21.014H17.703a4.691 4.691 0 0 0-4.677 4.678v12.746a4.691 4.691 0 0 0 4.677 4.677h13.8l4.23 4.23v-4.23h1.872a4.691 4.691 0 0 0 4.677-4.677V25.692a4.691 4.691 0 0 0-4.673-4.678Z" fill="#fff"/>
    <path d="M17.699 20.096h19.91a5.6 5.6 0 0 1 5.6 5.6v12.747a5.609 5.609 0 0 1-5.6 5.6h-.954v3.312a.918.918 0 0 1-1.567.649l-3.961-3.961H17.699a5.6 5.6 0 0 1-5.6-5.6V25.692a5.6 5.6 0 0 1 5.6-5.596Zm19.905 22.1a3.773 3.773 0 0 0 3.759-3.759V25.692a3.773 3.773 0 0 0-3.759-3.76H17.699a3.773 3.773 0 0 0-3.759 3.76v12.747a3.773 3.773 0 0 0 3.759 3.759h13.8a.918.918 0 0 1 .649.269l2.663 2.663v-2.014a.918.918 0 0 1 .918-.918Z" fill="#9d2c8d"/>
    <path d="m20.055 32.558-.886.649a.521.521 0 0 1-.294.118.4.4 0 0 1-.389-.4.43.43 0 0 1 .271-.365l1.038-.447-1.038-.46a.41.41 0 0 1-.271-.365.4.4 0 0 1 .4-.389.419.419 0 0 1 .282.118l.886.649-.118-1.049a.373.373 0 0 1 .365-.449.364.364 0 0 1 .366.437l-.118 1.061.884-.649a.453.453 0 0 1 .3-.118.393.393 0 0 1 .39.389.4.4 0 0 1-.272.365l-1.037.46 1.037.447a.414.414 0 0 1 .272.377.4.4 0 0 1-.4.39.53.53 0 0 1-.283-.118l-.884-.649.118 1.049a.373.373 0 0 1-.366.449.363.363 0 0 1-.365-.436ZM27.406 32.558l-.886.649a.521.521 0 0 1-.294.118.4.4 0 0 1-.389-.4.431.431 0 0 1 .272-.365l1.037-.447-1.037-.46a.411.411 0 0 1-.272-.365.4.4 0 0 1 .4-.389.419.419 0 0 1 .282.118l.886.649-.118-1.049a.373.373 0 0 1 .365-.449.363.363 0 0 1 .365.437l-.118 1.061.884-.649a.452.452 0 0 1 .3-.118.393.393 0 0 1 .39.389.4.4 0 0 1-.272.365l-1.037.46 1.037.447a.414.414 0 0 1 .272.377.4.4 0 0 1-.4.39.529.529 0 0 1-.283-.118l-.884-.649.118 1.049a.373.373 0 0 1-.365.449.363.363 0 0 1-.365-.436ZM34.76 32.558l-.885.649a.521.521 0 0 1-.3.118.4.4 0 0 1-.389-.4.43.43 0 0 1 .272-.365l1.037-.447-1.037-.46a.411.411 0 0 1-.272-.365.4.4 0 0 1 .4-.389.42.42 0 0 1 .282.118l.885.649-.118-1.049a.373.373 0 0 1 .365-.449.363.363 0 0 1 .365.437l-.118 1.061.885-.649a.451.451 0 0 1 .3-.118.393.393 0 0 1 .39.389.4.4 0 0 1-.272.365l-1.038.46 1.038.447a.414.414 0 0 1 .272.377.4.4 0 0 1-.4.39.529.529 0 0 1-.283-.118l-.885-.649.118 1.049a.373.373 0 0 1-.365.449.363.363 0 0 1-.365-.436Z" fill="#9d2c8d"/>
    <path fill="none" d="M0 0h72v72H0z"/>
</svg>