<svg data-name="Deco Icon Optical Store" xmlns="http://www.w3.org/2000/svg" xmlns:xlink="http://www.w3.org/1999/xlink" width="180" height="180"><defs><linearGradient id="a" x1=".5" y1="-.385" x2=".5" y2="1.923" gradientUnits="objectBoundingBox"><stop offset="0" stop-color="#f2f6fa"/><stop offset=".124" stop-color="#edf2f8"/><stop offset=".252" stop-color="#e1e8f2"/><stop offset=".383" stop-color="#ccd7e8"/><stop offset=".514" stop-color="#afbfda"/><stop offset=".648" stop-color="#89a0c8"/><stop offset=".782" stop-color="#5c7bb2"/><stop offset=".914" stop-color="#264f99"/><stop offset="1" stop-color="#003087"/></linearGradient><linearGradient id="b" x1=".5" y1="-.433" x2=".5" y2="1.979" xlink:href="#a"/></defs><path data-name="Rectangle 663" fill="none" d="M180 0v180H0V0z"/><g data-name="Group 2282"><path data-name="Path 4829" d="M20.378 60.264v45.819a13.244 13.244 0 0013.2 13.2h92.429a13.244 13.244 0 0013.2-13.2V60.264z" transform="translate(10.189 30.132)" fill="url(#a)"/><path data-name="Path 4830" d="M66.814 73.626a9.381 9.381 0 002.178 7.069 7.946 7.946 0 005.875 2.7 8.484 8.484 0 008.517-8.649V43.785h-12.94z" fill="none"/><path data-name="Path 4831" d="M109.528 43.785h-12.94v30.964c0 4.754 3.632 8.649 8.055 8.649a7.876 7.876 0 006.272-2.703 8.878 8.878 0 002.18-7.065z" fill="none"/><path data-name="Path 4832" d="M37.433 72.57a8.729 8.729 0 001.718 7.725 7.6 7.6 0 006.14 3.1 8.3 8.3 0 007.989-7.527l3.829-32.083H44.102z" fill="none"/><path data-name="Path 4833" d="M135.606 43.719l-12.741.066 3.828 32.088a8.254 8.254 0 007.989 7.527 7.745 7.745 0 006.206-3.1 8.952 8.952 0 001.651-7.727z" fill="none"/><path data-name="Path 4834" d="M49.259 82.459c.255-.19 2.831-2.321 2.829-2.322a21.232 21.232 0 0015.251 6.271 20.931 20.931 0 0014.724-6.14 21.636 21.636 0 0015.118 6.14 20.964 20.964 0 0014.789-6.271c5.847 5.829 13.591 7.478 19.929 5.331a21.247 21.247 0 0015.459-26.193l-6.933-28.853a12.967 12.967 0 00-12.611-10.035h-91.7a12.964 12.964 0 00-12.547 10.035l-6.931 28.853c-3.057 12.825 4.873 24.307 17.49 26.739a20.133 20.133 0 0015.133-3.555zm78.357-48.933l6.933 28.851A8.952 8.952 0 01132.9 70.1a7.745 7.745 0 01-6.206 3.1 8.254 8.254 0 01-7.989-7.527l-3.828-32.087zm-39.016.065h12.94l3.56 29.841a8.878 8.878 0 01-2.18 7.065 7.876 7.876 0 01-6.271 2.708c-4.424 0-8.055-3.9-8.055-8.649zM58.823 63.432l3.63-29.841h12.94v30.965a8.484 8.484 0 01-8.517 8.649A7.946 7.946 0 0161 70.5a9.381 9.381 0 01-2.177-7.068zM31.16 70.1a8.729 8.729 0 01-1.718-7.725l6.669-28.785h13.007l-3.829 32.088a8.3 8.3 0 01-7.989 7.527 7.6 7.6 0 01-6.14-3.105z" transform="translate(7.99 10.193)" fill="url(#b)"/><g data-name="Group 2279"><path data-name="Path 4835" d="M122.66 116.727c-1.219-5.811-6.719-9.989-13.086-9.941h-4.478a13.264 13.264 0 00-12.02 6.945 10.8 10.8 0 00-6.09 0 13.27 13.27 0 00-12.014-6.942h-4.483c-6.363-.03-11.85 4.146-13.078 9.951a3.974 3.974 0 00-2.52 1.08 2.934 2.934 0 00-.9 2.186 3.466 3.466 0 003.4 3.062c1.209 5.823 6.714 10.012 13.09 9.964h4.482c7.392.033 13.411-5.512 13.446-12.385v-.531c.085-.457 1.066-.864 1.828-.8a2.51 2.51 0 011.389.6l.036.455c-.127 6.871 5.76 12.538 13.151 12.657h4.776c6.389.049 11.9-4.156 13.093-9.993a3.92 3.92 0 002.471-1.145 2.894 2.894 0 00.833-2.214 3.447 3.447 0 00-3.326-2.949zm-40.264 3.958a6.622 6.622 0 01-6.621 6.622h-6.079a6.622 6.622 0 01-6.621-6.622v-1.548a6.621 6.621 0 016.621-6.621h6.076a6.621 6.621 0 016.624 6.621zm34.845 0a6.623 6.623 0 01-6.623 6.622h-6.079a6.622 6.622 0 01-6.621-6.622v-1.548a6.621 6.621 0 016.621-6.621h6.075a6.622 6.622 0 016.623 6.621z" fill="#003087"/><g data-name="Group 2277"><path data-name="Path 4836" d="M108.498 125.664a1.5 1.5 0 01-1.061-2.561l4.641-4.64a1.5 1.5 0 012.121 2.121l-4.641 4.64a1.49 1.49 0 01-1.06.44z" fill="#00a9b6" opacity=".5"/></g><g data-name="Group 2278"><path data-name="Path 4837" d="M73.712 125.664a1.5 1.5 0 01-1.061-2.561l4.641-4.64a1.5 1.5 0 012.121 2.121l-4.642 4.64a1.49 1.49 0 01-1.059.44z" fill="#00a9b6" opacity=".5"/></g></g></g></svg>