<svg data-name="Deco Icon Card Payment" xmlns="http://www.w3.org/2000/svg" xmlns:xlink="http://www.w3.org/1999/xlink" width="180" height="180"><defs><linearGradient id="b" x1=".5" y1="-.122" x2=".5" y2="1.729" gradientUnits="objectBoundingBox"><stop offset="0" stop-color="#f2f6fa"/><stop offset=".008" stop-color="#ecf1f7"/><stop offset=".079" stop-color="#bbc9e0"/><stop offset=".156" stop-color="#8ea4ca"/><stop offset=".238" stop-color="#6885b8"/><stop offset=".324" stop-color="#476aa9"/><stop offset=".416" stop-color="#2d559c"/><stop offset=".517" stop-color="#194492"/><stop offset=".631" stop-color="#0a388c"/><stop offset=".77" stop-color="#023288"/><stop offset="1" stop-color="#003087"/></linearGradient><linearGradient id="a" x1=".539" y1="-.503" x2="-.122" y2="1.338" gradientUnits="objectBoundingBox"><stop offset="0" stop-color="#f2f6fa"/><stop offset=".124" stop-color="#edf2f8"/><stop offset=".252" stop-color="#e1e8f2"/><stop offset=".383" stop-color="#ccd7e8"/><stop offset=".514" stop-color="#afbfda"/><stop offset=".648" stop-color="#89a0c8"/><stop offset=".782" stop-color="#5c7bb2"/><stop offset=".914" stop-color="#264f99"/><stop offset="1" stop-color="#003087"/></linearGradient><linearGradient id="c" x1="-.042" y1=".5" x2="1.919" y2=".5" xlink:href="#a"/><linearGradient id="d" x1=".5" y1="-.122" x2=".5" y2="1.729" xlink:href="#a"/><linearGradient id="e" x1=".122" y1="1.215" x2="1.399" y2="-.914" xlink:href="#a"/></defs><g data-name="Group 1230"><path data-name="Rectangle 459" fill="none" d="M0 0h180v180H0z"/><path data-name="Path 4663" d="M6 0h102.777a6 6 0 016 6v79.015a6 6 0 01-6 6H6a6 6 0 01-6-6V6a6 6 0 016-6z" transform="translate(27 56.768)" fill="url(#b)"/><g data-name="Group 1233"><path data-name="Path 4664" d="M6 0h84.318a6 6 0 016 6v47.263a6 6 0 01-6 6H6a6 6 0 01-6-6V6a6 6 0 016-6z" transform="rotate(-29.992 147.953 -18.503)" fill="url(#a)"/><path data-name="Rectangle 462" fill="#003087" d="M34.983 81.748l83.411-48.159 5.927 10.265-83.412 48.159z"/><g data-name="Group 1230"><path data-name="Path 910" d="M97.243 66.691a1.452 1.452 0 01-.727-2.71l23.763-13.712a1.453 1.453 0 111.45 2.517L97.968 66.502a1.458 1.458 0 01-.725.189z" fill="#00a9b6" opacity=".5"/></g><g data-name="Group 1231"><path data-name="Path 911" d="M111.136 65.937a1.453 1.453 0 01-.727-2.71l13.476-7.778a1.453 1.453 0 111.452 2.517l-13.477 7.778a1.448 1.448 0 01-.724.193z" fill="#00a9b6" opacity=".5"/></g><g data-name="Group 1232"><path data-name="Path 912" d="M51.084 99.313a2.982 2.982 0 01-2.572-1.478l-1.663-2.879a2.962 2.962 0 011.085-4.042l41.25-23.813a2.963 2.963 0 014.041 1.082l1.665 2.881a2.96 2.96 0 01-1.085 4.041L52.556 98.916a2.957 2.957 0 01-1.472.397zm39.63-29.678l-41.33 23.792 1.644 2.952 41.329-23.791a.057.057 0 00.02-.072z" fill="#00a9b6" opacity=".5"/></g><path data-name="Path 4665" d="M1.5 0h11.118a1.5 1.5 0 011.5 1.5v5.345a1.5 1.5 0 01-1.5 1.5H1.5A1.5 1.5 0 010 6.844V1.5A1.5 1.5 0 011.5 0z" transform="rotate(-30 187.91 -182.202)" fill="url(#c)"/></g><path data-name="Path 913" d="M134.307 47.668H24.121A5.923 5.923 0 0118 41.965v79.849a5.923 5.923 0 006.121 5.7h110.186a5.923 5.923 0 006.121-5.7V53.372a5.924 5.924 0 00-6.121-5.704z" transform="translate(9 20.982)" fill="url(#d)"/><path data-name="Path 4666" d="M10.5 0h23.951a3.808 3.808 0 013.808 3.808V19.14a3.808 3.808 0 01-3.808 3.808H10.5A10.5 10.5 0 010 12.447V10.5A10.5 10.5 0 0110.5 0z" transform="translate(114.741 97.296)" fill="url(#e)"/></g></svg>