<svg xmlns="http://www.w3.org/2000/svg" width="16" height="16"><path d="M8 0a7.977 7.977 0 0 0-5.71 2.4h11.419A7.978 7.978 0 0 0 8 0zM13.709 13.601H2.29a7.994 7.994 0 0 0 11.419 0z" fill="#d50000"/><path d="M15.486 10.803H.513a7.991 7.991 0 0 0 1.778 2.8h11.417a7.992 7.992 0 0 0 1.778-2.8zM13.709 2.4H2.292A7.991 7.991 0 0 0 .514 5.2h14.973a7.992 7.992 0 0 0-1.778-2.8z" fill="#eceff1"/><path d="M16 8.001a7.962 7.962 0 0 0-.514-2.8H.514a7.882 7.882 0 0 0 0 5.6h14.972a7.954 7.954 0 0 0 .514-2.8z" fill="#1a237e"/></svg>